<svg width="29" height="28" viewBox="0 0 29 28" fill="none" xmlns="http://www.w3.org/2000/svg">
<path d="M14.5291 25.0133C12.6225 25.0133 10.7586 24.4479 9.17333 23.3885C7.58805 22.3291 6.35253 20.8234 5.62306 19.0618C4.89358 17.3002 4.7029 15.3619 5.07515 13.4919C5.44739 11.6219 6.36583 9.90435 7.71431 8.55639C9.06279 7.20844 10.7807 6.29066 12.6508 5.91914C14.521 5.54762 16.4593 5.73905 18.2206 6.46921C19.9819 7.19937 21.4871 8.43547 22.5459 10.0212C23.6046 11.6069 24.1693 13.4709 24.1686 15.3776C24.1656 17.9329 23.149 20.3826 21.3418 22.1891C19.5345 23.9956 17.0844 25.0113 14.5291 25.0133ZM14.5291 7.60478C12.9918 7.60478 11.489 8.06065 10.2108 8.91473C8.93255 9.76882 7.93629 10.9828 7.34799 12.4031C6.75968 13.8234 6.60576 15.3862 6.90567 16.894C7.20559 18.4018 7.94587 19.7867 9.03292 20.8738C10.12 21.9608 11.5049 22.7011 13.0127 23.001C14.5205 23.3009 16.0833 23.147 17.5036 22.5587C18.9239 21.9704 20.1379 20.9741 20.992 19.6959C21.8461 18.4177 22.3019 16.9149 22.3019 15.3776C22.2999 13.3167 21.4804 11.3408 20.0231 9.88356C18.5659 8.42631 16.59 7.60676 14.5291 7.60478Z" fill="#BFBFBF"/>
<path d="M17.0421 19.4506C16.8846 19.4492 16.7302 19.4067 16.5941 19.3274L14.0778 17.8752C13.9355 17.7939 13.8171 17.6766 13.7346 17.535C13.652 17.3935 13.6081 17.2327 13.6074 17.0688V12.2341C13.6074 11.9866 13.7058 11.7492 13.8808 11.5741C14.0558 11.3991 14.2932 11.3008 14.5408 11.3008C14.7883 11.3008 15.0257 11.3991 15.2007 11.5741C15.3758 11.7492 15.4741 11.9866 15.4741 12.2341V16.5312L17.5237 17.7109C17.7018 17.8147 17.8406 17.9745 17.9183 18.1655C17.9961 18.3564 18.0084 18.5677 17.9534 18.7664C17.8984 18.9651 17.7792 19.14 17.6143 19.2638C17.4494 19.3875 17.2482 19.4533 17.0421 19.4506Z" fill="#BFBFBF"/>
<path d="M24.2288 9.20648C24.0761 9.20706 23.9256 9.16987 23.7908 9.09822C23.6559 9.02657 23.5409 8.92268 23.456 8.79582C22.1716 6.89047 20.2601 5.49549 18.0538 4.85342C17.9359 4.81983 17.8258 4.76336 17.7297 4.68721C17.6336 4.61106 17.5535 4.51673 17.4938 4.40961C17.3734 4.19327 17.3439 3.93795 17.4117 3.69982C17.4795 3.46169 17.6392 3.26026 17.8555 3.13983C18.0718 3.01941 18.3272 2.98986 18.5653 3.05768C21.194 3.82017 23.4717 5.48093 25.0016 7.75048C25.0964 7.89083 25.1513 8.05435 25.1603 8.22351C25.1693 8.39267 25.1321 8.56109 25.0527 8.71072C24.9733 8.86035 24.8546 8.98554 24.7095 9.07288C24.5643 9.16022 24.3982 9.2064 24.2288 9.20648Z" fill="#BFBFBF"/>
<path d="M4.83385 9.17278C4.66385 9.17316 4.49698 9.1271 4.35124 9.03957C4.20551 8.95205 4.08644 8.82638 4.0069 8.67614C3.92736 8.5259 3.89037 8.35679 3.89991 8.18706C3.90945 8.01732 3.96517 7.85342 4.06105 7.71304C5.60246 5.46105 7.87074 3.80696 10.4861 3.02771C10.6044 2.98969 10.729 2.97565 10.8528 2.98643C10.9765 2.9972 11.0969 3.03257 11.2068 3.09046C11.3167 3.14834 11.4139 3.22759 11.4928 3.32354C11.5717 3.41949 11.6306 3.53023 11.6661 3.64925C11.7017 3.76828 11.7131 3.89319 11.6997 4.01669C11.6864 4.14018 11.6485 4.25976 11.5883 4.36843C11.5281 4.47709 11.4468 4.57265 11.3493 4.6495C11.2517 4.72635 11.1397 4.78295 11.02 4.81598C8.81612 5.47109 6.90472 6.86444 5.60665 8.76211C5.52121 8.88851 5.40609 8.99204 5.27136 9.06363C5.13664 9.13523 4.98642 9.1727 4.83385 9.17278Z" fill="#BFBFBF"/>
</svg>
