<svg width="29" height="28" viewBox="0 0 29 28" fill="none" xmlns="http://www.w3.org/2000/svg">
<path d="M18.9796 25.0134H10.0196C8.98026 25.0124 7.98377 24.5991 7.24884 23.8642C6.51391 23.1293 6.1006 22.1328 6.09961 21.0934V9.5201C6.1006 8.48075 6.51391 7.48426 7.24884 6.74933C7.98377 6.0144 8.98026 5.60109 10.0196 5.6001H18.9796C20.019 5.60109 21.0154 6.0144 21.7504 6.74933C22.4853 7.48426 22.8986 8.48075 22.8996 9.5201V21.0934C22.8986 22.1328 22.4853 23.1293 21.7504 23.8642C21.0154 24.5991 20.019 25.0124 18.9796 25.0134ZM10.0196 7.46676C9.47533 7.46775 8.95363 7.6844 8.56877 8.06926C8.18391 8.45412 7.96726 8.97582 7.96628 9.5201V21.0934C7.96726 21.6377 8.18391 22.1594 8.56877 22.5443C8.95363 22.9291 9.47533 23.1458 10.0196 23.1468H18.9796C19.5239 23.1458 20.0456 22.9291 20.4304 22.5443C20.8153 22.1594 21.032 21.6377 21.0329 21.0934V9.5201C21.032 8.97582 20.8153 8.45412 20.4304 8.06926C20.0456 7.6844 19.5239 7.46775 18.9796 7.46676H10.0196Z" fill="#1F1F1F"/>
<path d="M17.4867 20.5337H11.5134C11.2659 20.5337 11.0285 20.4353 10.8534 20.2603C10.6784 20.0853 10.5801 19.8479 10.5801 19.6003C10.5801 19.3528 10.6784 19.1154 10.8534 18.9404C11.0285 18.7653 11.2659 18.667 11.5134 18.667H17.4867C17.7343 18.667 17.9717 18.7653 18.1467 18.9404C18.3217 19.1154 18.4201 19.3528 18.4201 19.6003C18.4201 19.8479 18.3217 20.0853 18.1467 20.2603C17.9717 20.4353 17.7343 20.5337 17.4867 20.5337Z" fill="#1F1F1F"/>
<path d="M17.8594 16.2402H11.1394C10.8919 16.2402 10.6545 16.1419 10.4794 15.9668C10.3044 15.7918 10.2061 15.5544 10.2061 15.3069C10.2061 15.0593 10.3044 14.8219 10.4794 14.6469C10.6545 14.4719 10.8919 14.3735 11.1394 14.3735H17.8594C18.1069 14.3735 18.3443 14.4719 18.5194 14.6469C18.6944 14.8219 18.7927 15.0593 18.7927 15.3069C18.7927 15.5544 18.6944 15.7918 18.5194 15.9668C18.3443 16.1419 18.1069 16.2402 17.8594 16.2402Z" fill="#1F1F1F"/>
<path d="M17.8594 11.9467H11.1394C10.8919 11.9467 10.6545 11.8484 10.4794 11.6734C10.3044 11.4983 10.2061 11.2609 10.2061 11.0134C10.2061 10.7659 10.3044 10.5285 10.4794 10.3534C10.6545 10.1784 10.8919 10.0801 11.1394 10.0801H17.8594C18.1069 10.0801 18.3443 10.1784 18.5194 10.3534C18.6944 10.5285 18.7927 10.7659 18.7927 11.0134C18.7927 11.2609 18.6944 11.4983 18.5194 11.6734C18.3443 11.8484 18.1069 11.9467 17.8594 11.9467Z" fill="#1F1F1F"/>
<path d="M17.1134 6.53326C17.1134 5.84016 16.8381 5.17544 16.348 4.68535C15.8579 4.19525 15.1932 3.91992 14.5001 3.91992C13.807 3.91992 13.1422 4.19525 12.6521 4.68535C12.1621 5.17544 11.8867 5.84016 11.8867 6.53326H17.1134Z" fill="#1F1F1F"/>
<path d="M17.1131 7.46682H11.8865C11.6389 7.46682 11.4015 7.36848 11.2265 7.19345C11.0515 7.01842 10.9531 6.78102 10.9531 6.53348C10.9531 5.59285 11.3268 4.69074 11.9919 4.02561C12.657 3.36048 13.5592 2.98682 14.4998 2.98682C15.4404 2.98682 16.3425 3.36048 17.0077 4.02561C17.6728 4.69074 18.0465 5.59285 18.0465 6.53348C18.0465 6.65605 18.0223 6.77742 17.9754 6.89065C17.9285 7.00389 17.8598 7.10678 17.7731 7.19345C17.6864 7.28012 17.5835 7.34887 17.4703 7.39577C17.3571 7.44268 17.2357 7.46682 17.1131 7.46682ZM13.1035 5.60015H15.8961C15.7425 5.37068 15.5348 5.1826 15.2913 5.05253C15.0477 4.92245 14.7759 4.85441 14.4998 4.85441C14.2237 4.85441 13.9519 4.92245 13.7083 5.05253C13.4648 5.1826 13.2571 5.37068 13.1035 5.60015Z" fill="#1F1F1F"/>
<path d="M14.4997 6.53366C15.0152 6.53366 15.4331 6.11579 15.4331 5.60033C15.4331 5.08486 15.0152 4.66699 14.4997 4.66699C13.9843 4.66699 13.5664 5.08486 13.5664 5.60033C13.5664 6.11579 13.9843 6.53366 14.4997 6.53366Z" fill="white"/>
</svg>
