<svg width="29" height="28" viewBox="0 0 29 28" fill="none" xmlns="http://www.w3.org/2000/svg">
<path d="M5.53978 25.0135C5.29224 25.0135 5.05485 24.9152 4.87981 24.7401C4.70478 24.5651 4.60645 24.3277 4.60645 24.0802V3.92015C4.60645 3.67261 4.70478 3.43522 4.87981 3.26018C5.05485 3.08515 5.29224 2.98682 5.53978 2.98682C5.78731 2.98682 6.02471 3.08515 6.19974 3.26018C6.37478 3.43522 6.47311 3.67261 6.47311 3.92015V24.0802C6.47311 24.3277 6.37478 24.5651 6.19974 24.7401C6.02471 24.9152 5.78731 25.0135 5.53978 25.0135Z" fill="#BFBFBF"/>
<path d="M23.4598 18.2935H5.53978C5.29224 18.2935 5.05485 18.1952 4.87981 18.0201C4.70478 17.8451 4.60645 17.6077 4.60645 17.3601C4.60645 17.1126 4.70478 16.8752 4.87981 16.7002C5.05485 16.5251 5.29224 16.4268 5.53978 16.4268H21.7798L18.5579 11.1255C18.4681 10.9795 18.4205 10.8115 18.4205 10.6401C18.4205 10.4688 18.4681 10.3008 18.5579 10.1548L21.7798 4.85348H5.53978C5.29224 4.85348 5.05485 4.75515 4.87981 4.58012C4.70478 4.40508 4.60645 4.16769 4.60645 3.92015C4.60645 3.67261 4.70478 3.43522 4.87981 3.26018C5.05485 3.08515 5.29224 2.98682 5.53978 2.98682H23.4598C23.6253 2.98717 23.7877 3.03153 23.9304 3.11535C24.0731 3.19917 24.191 3.31942 24.2719 3.46379C24.3528 3.60816 24.3939 3.77145 24.3909 3.93693C24.388 4.10241 24.341 4.26412 24.255 4.40548L20.447 10.6401L24.255 16.8748C24.341 17.0162 24.388 17.1779 24.3909 17.3434C24.3939 17.5088 24.3528 17.6721 24.2719 17.8165C24.191 17.9609 24.0731 18.0811 23.9304 18.1649C23.7877 18.2488 23.6253 18.2931 23.4598 18.2935Z" fill="#BFBFBF"/>
</svg>
