<svg width="29" height="28" viewBox="0 0 29 28" fill="none" xmlns="http://www.w3.org/2000/svg">
<path d="M15.0491 24.6141C14.4596 24.6142 13.8815 24.4525 13.3776 24.1467C12.8737 23.8409 12.4633 23.4027 12.1911 22.8799C11.919 22.357 11.7955 21.7695 11.8341 21.1813C11.8727 20.5932 12.0719 20.0269 12.41 19.544C12.7481 19.0612 13.2122 18.6804 13.7518 18.4431C14.2913 18.2058 14.8856 18.121 15.47 18.198C16.0544 18.2751 16.6065 18.5109 17.0661 18.8799C17.5257 19.249 17.8753 19.737 18.0768 20.2909C18.2538 20.7776 18.3109 21.2998 18.2433 21.8133C18.1756 22.3267 17.9851 22.8163 17.688 23.2405C17.391 23.6647 16.996 24.011 16.5366 24.2502C16.0772 24.4893 15.567 24.6141 15.0491 24.6141ZM15.0491 20.0371C14.7609 20.0369 14.4801 20.1287 14.2476 20.299C14.0151 20.4693 13.843 20.7093 13.7562 20.9842C13.6694 21.259 13.6725 21.5544 13.765 21.8273C13.8575 22.1003 14.0346 22.3366 14.2706 22.502C14.5067 22.6675 14.7893 22.7533 15.0774 22.7472C15.3656 22.741 15.6442 22.6432 15.873 22.4678C16.1017 22.2925 16.2686 22.0487 16.3493 21.7721C16.4301 21.4954 16.4206 21.2002 16.3221 20.9293C16.2621 20.7615 16.1695 20.6072 16.0497 20.4753C15.9299 20.3433 15.7852 20.2363 15.624 20.1603C15.4432 20.079 15.2473 20.037 15.0491 20.0371Z" fill="#BFBFBF"/>
<path d="M17.2 21.5453C16.9809 21.5441 16.7692 21.466 16.602 21.3245C16.4347 21.1829 16.3226 20.9871 16.2852 20.7712C16.2478 20.5553 16.2875 20.3332 16.3975 20.1437C16.5074 19.9541 16.6805 19.8093 16.8864 19.7346L24.5995 16.9271C24.7144 16.8849 24.8366 16.8658 24.9589 16.8709C25.0813 16.8761 25.2014 16.9053 25.3124 16.957C25.4234 17.0087 25.5231 17.0818 25.6058 17.1721C25.6885 17.2625 25.7525 17.3682 25.7942 17.4834C25.8738 17.7147 25.8598 17.968 25.7551 18.1892C25.6505 18.4103 25.4635 18.5817 25.2342 18.6669L17.5211 21.4855C17.4186 21.5248 17.3098 21.545 17.2 21.5453Z" fill="#BFBFBF"/>
<path d="M14.2729 20.1601C14.0815 20.1603 13.8947 20.1016 13.7378 19.9921C13.5809 19.8826 13.4614 19.7275 13.3956 19.5478L8.93797 7.32487C8.75104 6.81803 8.3719 6.40527 7.88272 6.17605C7.39354 5.94684 6.83374 5.91963 6.32464 6.10034L5.09264 6.54834C4.97743 6.59026 4.85509 6.60907 4.7326 6.60371C4.61012 6.59835 4.48989 6.56891 4.37878 6.51708C4.26767 6.46525 4.16786 6.39205 4.08504 6.30165C4.00223 6.21125 3.93802 6.10542 3.89611 5.99021C3.85419 5.87499 3.83537 5.75265 3.84074 5.63017C3.8461 5.50768 3.87554 5.38745 3.92736 5.27635C3.97919 5.16524 4.0524 5.06542 4.1428 4.98261C4.2332 4.89979 4.33903 4.83559 4.45424 4.79367L5.68624 4.34567C6.66071 3.99553 7.73413 4.04516 8.67212 4.48373C9.61012 4.9223 10.3365 5.71418 10.6926 6.68647L15.1465 18.9243C15.2306 19.157 15.2188 19.4136 15.1138 19.6376C15.0088 19.8616 14.8191 20.0348 14.5865 20.119C14.4854 20.1519 14.3791 20.1658 14.2729 20.1601Z" fill="#BFBFBF"/>
<path d="M17.7862 17.9871C17.2818 17.9871 16.7895 17.832 16.3762 17.5428C15.9628 17.2537 15.6483 16.8444 15.4753 16.3706L13.8998 12.0735C13.7903 11.7686 13.742 11.4451 13.7578 11.1215C13.7736 10.7979 13.8532 10.4806 13.9919 10.1878C14.1307 9.89504 14.3259 9.63256 14.5664 9.41544C14.8068 9.19831 15.0878 9.03082 15.3932 8.92258L19.4998 7.41805C20.1128 7.19565 20.7889 7.22565 21.3797 7.50146C21.9705 7.77726 22.4277 8.27632 22.6508 8.88898L24.215 13.1823C24.4374 13.7952 24.4074 14.4714 24.1316 15.0622C23.8558 15.653 23.3568 16.1102 22.7441 16.3332L18.615 17.8266C18.3502 17.9277 18.0697 17.9821 17.7862 17.9871ZM20.1494 9.17271L16.0204 10.666C15.8764 10.7208 15.7591 10.829 15.693 10.9681C15.6269 11.1073 15.6172 11.2665 15.6657 11.4127L17.23 15.706C17.2831 15.8512 17.3912 15.9697 17.5308 16.036C17.6704 16.1024 17.8305 16.1112 17.9766 16.0607L22.1057 14.5674C22.1793 14.5429 22.2473 14.5042 22.3059 14.4534C22.3645 14.4026 22.4125 14.3408 22.4472 14.2714C22.4819 14.2021 22.5025 14.1266 22.508 14.0493C22.5135 13.9719 22.5036 13.8942 22.479 13.8207L20.9148 9.52738C20.8616 9.38221 20.7536 9.26371 20.614 9.19738C20.4743 9.13105 20.3142 9.12219 20.1681 9.17271H20.1494Z" fill="#BFBFBF"/>
</svg>
