<svg style="width:0; height:0; visibility: hidden;" xmlns="http://www.w3.org/2000/svg">
<symbol  id="svg-curier-logo" viewBox="0 0 140 128">
<path d="M14.0393 6.08789H44.8568C45.6101 6.08789 46.3559 6.23625 47.0518 6.52449C47.7476 6.81273 48.3799 7.23521 48.9125 7.76782C49.4451 8.30042 49.8676 8.93271 50.1559 9.62859C50.4441 10.3245 50.5925 11.0703 50.5925 11.8235V42.641C50.5928 43.3944 50.4446 44.1405 50.1565 44.8366C49.8684 45.5327 49.4459 46.1653 48.9133 46.6981C48.3807 47.231 47.7483 47.6536 47.0523 47.942C46.3563 48.2304 45.6102 48.3788 44.8568 48.3788H14.0393C13.2859 48.3788 12.5399 48.2304 11.8439 47.942C11.1479 47.6536 10.5155 47.231 9.98286 46.6981C9.45023 46.1653 9.0278 45.5327 8.73968 44.8366C8.45157 44.1405 8.30342 43.3944 8.30371 42.641V11.8235C8.30371 10.3023 8.908 8.84345 9.98364 7.76782C11.0593 6.69218 12.5182 6.08789 14.0393 6.08789Z" fill="#FFDC00"/>
<path d="M50.6186 11.8282V42.6325C50.6212 43.3865 50.4746 44.1335 50.1873 44.8305C49.8999 45.5276 49.4776 46.1609 48.9444 46.694C48.4113 47.2272 47.778 47.6495 47.0809 47.9369C46.3839 48.2242 45.6369 48.3708 44.8829 48.3682H18.8232C23.5538 46.1663 27.7696 42.9961 31.1979 39.0625C41.1336 27.7729 41.2692 13.9522 40.2761 6.09473H44.8829C46.403 6.09704 47.8602 6.70177 48.9353 7.77643C50.0104 8.8511 50.6157 10.3081 50.6186 11.8282Z" fill="black" fill-opacity="0.0627451"/>
<path d="M44.8568 50.6343H14.0371C11.9179 50.632 9.88614 49.7891 8.38764 48.2906C6.88914 46.7921 6.04626 44.7604 6.04395 42.6412V11.8237C6.04626 9.70449 6.88914 7.67276 8.38764 6.17426C9.88614 4.67576 11.9179 3.83288 14.0371 3.83057H44.8589C46.9781 3.83288 49.0099 4.67576 50.5084 6.17426C52.0069 7.67276 52.8498 9.70449 52.8521 11.8237V42.6412C52.8503 44.7611 52.0074 46.7938 50.5084 48.2928C49.0093 49.7918 46.9767 50.6348 44.8568 50.6365V50.6343ZM14.0371 8.34994C13.115 8.34994 12.2306 8.71609 11.5784 9.36789C10.9262 10.0197 10.5595 10.9038 10.5589 11.8259V42.6434C10.5589 44.5618 12.1186 46.1215 14.0371 46.1215H44.8589C46.7752 46.1215 48.3349 44.5618 48.3349 42.6434V11.8237C48.3349 10.9012 47.9684 10.0166 47.3162 9.36429C46.6639 8.71201 45.7792 8.34557 44.8568 8.34557L14.0371 8.34994Z" fill="#131319"/>
<path d="M34.3914 6.10352V16.3957C34.3914 16.9817 34.1586 17.5436 33.7443 17.958C33.33 18.3723 32.768 18.6051 32.182 18.6051H26.7133C26.1273 18.6051 25.5654 18.3723 25.151 17.958C24.7367 17.5436 24.5039 16.9817 24.5039 16.3957V6.10352H34.3914Z" fill="#F7524B"/>
<path d="M32.1817 20.8623H26.713C25.529 20.8611 24.3939 20.3904 23.5565 19.5534C22.7191 18.7165 22.2478 17.5815 22.2461 16.3976V6.10539C22.2461 4.85633 23.2545 3.8457 24.5036 3.8457H34.3911C35.638 3.8457 36.6486 4.85633 36.6486 6.10539V16.3976C36.6474 17.5817 36.1764 18.717 35.3389 19.5541C34.5013 20.3912 33.3659 20.8617 32.1817 20.8623ZM26.7611 8.36289V16.3976H32.1423V8.36289H26.7611Z" fill="#131319"/>
<path d="M68.0224 54.0577C68.0224 52.5516 67.4241 51.1071 66.3591 50.0422C65.2941 48.9772 63.8497 48.3789 62.3436 48.3789H17.0514C16.3307 48.379 15.6216 48.5613 14.9902 48.9089C14.3588 49.2565 13.8256 49.7582 13.4401 50.3672C13.0546 50.9762 12.8293 51.6728 12.7853 52.3923C12.7413 53.1117 12.8799 53.8306 13.1883 54.482L16.7539 62.007V67.6048L68.0224 64.1486V54.0577Z" fill="#00BCD4"/>
<path d="M16.7533 69.8623C16.4565 69.8632 16.1624 69.8054 15.888 69.6923C15.6136 69.5791 15.3642 69.4129 15.1543 69.2032C14.9443 68.9934 14.7778 68.7442 14.6644 68.4699C14.5511 68.1956 14.493 67.9016 14.4936 67.6048V62.5167L11.1467 55.4467C10.6715 54.452 10.4575 53.3526 10.5248 52.2523C10.5922 51.152 10.9387 50.0869 11.5317 49.1576C12.1184 48.2246 12.9328 47.4562 13.8983 46.9246C14.8638 46.3931 15.9486 46.1159 17.0508 46.1192H62.3429C64.4471 46.1215 66.4643 46.9584 67.9522 48.4462C69.44 49.934 70.2769 51.9513 70.2792 54.0554V64.1485C70.2792 65.3364 69.3561 66.3207 68.1726 66.4017L16.9042 69.8579C16.8539 69.8623 16.8036 69.8645 16.7511 69.8645L16.7533 69.8623ZM17.0508 50.6342C16.0489 50.6342 15.5261 51.2904 15.3467 51.5748C15.1673 51.8592 14.7998 52.6095 15.2286 53.5151L18.792 61.0423C18.9364 61.3442 19.0108 61.6723 19.0108 62.0092V65.1898L65.762 62.0376V54.0554C65.762 52.1698 64.2264 50.6364 62.3408 50.6364H17.0508V50.6342Z" fill="#131319"/>
<path d="M29.9615 125.681C39.4078 125.681 47.0655 118.023 47.0655 108.577C47.0655 99.1304 39.4078 91.4727 29.9615 91.4727C20.5152 91.4727 12.8574 99.1304 12.8574 108.577C12.8574 118.023 20.5152 125.681 29.9615 125.681Z" fill="#404049"/>
<path d="M29.9613 117.622C34.9569 117.622 39.0066 113.572 39.0066 108.577C39.0066 103.581 34.9569 99.5312 29.9613 99.5312C24.9657 99.5312 20.916 103.581 20.916 108.577C20.916 113.572 24.9657 117.622 29.9613 117.622Z" fill="#FF9801"/>
<path d="M29.962 119.879C23.7298 119.879 18.6592 114.806 18.6592 108.574C18.6592 102.342 23.7298 97.2715 29.962 97.2715C36.1942 97.2715 41.267 102.342 41.267 108.574C41.267 114.806 36.1942 119.879 29.962 119.879ZM29.962 101.789C26.2214 101.789 23.1742 104.829 23.1742 108.574C23.1742 112.319 26.2192 115.362 29.962 115.362C33.7048 115.362 36.7498 112.321 36.7498 108.574C36.7498 104.827 33.7048 101.786 29.962 101.786V101.789Z" fill="#131319"/>
<path d="M29.9619 127.938C19.2869 127.938 10.6025 119.254 10.6025 108.574C10.6025 97.8951 19.2869 89.2129 29.9619 89.2129C40.6369 89.2129 49.3213 97.8973 49.3213 108.574C49.3213 119.252 40.6369 127.938 29.9619 127.938ZM29.9619 93.7301C21.7785 93.7301 15.1175 100.389 15.1175 108.574C15.1175 116.76 21.7785 123.421 29.9619 123.421C38.1453 123.421 44.8063 116.76 44.8063 108.574C44.8063 100.389 38.1453 93.7301 29.9619 93.7301Z" fill="#131319"/>
<path d="M114.425 125.681C123.872 125.681 131.529 118.023 131.529 108.577C131.529 99.1304 123.872 91.4727 114.425 91.4727C104.979 91.4727 97.3213 99.1304 97.3213 108.577C97.3213 118.023 104.979 125.681 114.425 125.681Z" fill="#404049"/>
<path d="M114.425 117.622C119.421 117.622 123.471 113.572 123.471 108.577C123.471 103.581 119.421 99.5312 114.425 99.5312C109.43 99.5312 105.38 103.581 105.38 108.577C105.38 113.572 109.43 117.622 114.425 117.622Z" fill="#FF9801"/>
<path d="M114.427 119.879C108.193 119.879 103.122 114.806 103.122 108.574C103.122 102.342 108.193 97.2715 114.425 97.2715C120.659 97.2715 125.73 102.342 125.73 108.574C125.73 114.806 120.657 119.879 114.425 119.879H114.427ZM114.427 101.789C110.682 101.789 107.637 104.829 107.637 108.574C107.637 112.319 110.682 115.362 114.425 115.362C118.168 115.362 121.213 112.321 121.213 108.574C121.213 104.827 118.172 101.786 114.425 101.786L114.427 101.789Z" fill="#131319"/>
<path d="M114.427 127.938C103.748 127.938 95.0635 119.254 95.0635 108.574C95.0635 97.8951 103.748 89.2129 114.425 89.2129C125.102 89.2129 133.789 97.8973 133.789 108.574C133.789 119.252 125.104 127.938 114.425 127.938H114.427ZM114.427 93.7301C106.239 93.7301 99.5807 100.389 99.5807 108.574C99.5807 116.76 106.239 123.421 114.425 123.421C122.613 123.421 129.272 116.76 129.272 108.574C129.272 100.389 122.613 93.7301 114.425 93.7301H114.427Z" fill="#131319"/>
<path d="M124.584 79.9115C123.002 68.0684 118.47 53.0862 102.107 34.6871L90.4107 33.9434C92.6376 38.0077 100.633 60.0184 97.3539 77.9034C96.0195 85.1746 89.4285 90.3065 82.0348 90.254L78.5304 90.2277C72.2851 90.184 67.2735 84.7415 68.1026 78.5509C68.3104 77.0043 68.6167 75.4074 69.0585 73.8346C69.9254 70.7604 71.1755 67.8074 72.7795 65.0452C74.6957 61.7399 72.2042 57.6034 68.3848 57.6034H32.2976C18.8729 57.6034 6.97292 66.6509 3.82511 79.7015C1.57417 89.0268 2.41417 97.5602 2.41417 97.5602L23.6723 106.269H100.869V106.258C110.77 106.229 119.389 105.074 123.534 92.5246C124.873 88.4734 125.148 84.1399 124.584 79.9115Z" fill="#F44335"/>
<path d="M122.023 68.1934C117.421 63.2917 112.162 59.0513 106.396 55.5934C103.039 53.5733 99.5191 51.8363 95.8738 50.4002C94.0669 42.3152 91.5359 35.9474 90.4531 33.959L102.15 34.6809C109.872 43.444 115.023 51.4371 118.363 58.6646C119.899 62.0071 121.12 65.168 122.023 68.1934Z" fill="#C81E1E"/>
<path d="M23.6727 108.526C23.3794 108.526 23.0889 108.469 22.8173 108.358L1.55922 99.6515C1.17884 99.496 0.848084 99.2396 0.602555 98.91C0.357025 98.5805 0.206017 98.1902 0.165785 97.7812C0.130785 97.4203 -0.682965 88.7578 1.63141 79.17C5.01329 65.1415 17.622 55.3437 32.298 55.3437H68.3852C71.032 55.3437 73.3989 56.7175 74.7289 59.0187C75.3659 60.1041 75.7019 61.3398 75.7023 62.5983C75.7027 63.8568 75.3674 65.0926 74.7311 66.1784C73.2245 68.7758 72.0487 71.5514 71.2311 74.4406C70.8326 75.889 70.5352 77.3632 70.3408 78.8528C70.1911 79.9635 70.2831 81.0933 70.6105 82.1652C70.9378 83.237 71.4927 84.2255 72.2373 85.0631C73.0226 85.9672 73.9913 86.6938 75.079 87.1947C76.1667 87.6955 77.3486 87.9592 78.5461 87.9681L82.0527 87.9944H82.1555C88.567 87.9944 94.0139 83.5931 95.1295 77.4987C98.2445 60.5019 90.7283 39.224 88.4314 35.0284C88.2379 34.674 88.143 34.2741 88.1564 33.8705C88.1698 33.4669 88.2912 33.0743 88.5078 32.7335C88.7244 32.3927 89.0284 32.1162 89.3882 31.9327C89.7479 31.7493 90.1502 31.6655 90.5533 31.6903L102.25 32.434C102.845 32.4712 103.4 32.7403 103.796 33.1843C121.55 53.1497 125.44 69.2431 126.824 79.6118C127.454 84.339 127.058 89.0487 125.678 93.2312C121.038 107.284 110.88 108.487 100.878 108.517L23.6727 108.526ZM24.1189 104.009H100.865C110.221 103.97 117.674 103.053 121.388 91.8159C122.552 88.2765 122.885 84.2647 122.346 80.2112H122.342C121.051 70.5468 117.438 55.5931 101.029 36.8812L93.9942 36.4328C97.2449 44.6775 102.401 62.8643 99.5723 78.3103C98.052 86.6009 90.8136 92.5378 82.0155 92.5115L78.5089 92.4853C76.6708 92.472 74.8566 92.0676 73.1868 91.299C71.5171 90.5303 70.0302 89.415 68.8248 88.0272C67.6656 86.7016 66.8018 85.1445 66.2907 83.4594C65.7797 81.7742 65.6331 79.9996 65.8608 78.2534C66.1014 76.4837 66.4427 74.7906 66.8802 73.2243C67.7995 69.968 69.1246 66.8401 70.8242 63.9143C71.5067 62.7331 71.043 61.6722 70.8111 61.2718C70.5684 60.842 70.2154 60.4847 69.7886 60.2367C69.3618 59.9887 68.8766 59.859 68.383 59.8609H32.298C19.7198 59.8609 8.9136 68.2368 6.01954 80.2265C4.3986 86.9509 4.45547 93.3231 4.57579 96.0093L24.1189 104.009Z" fill="#131319"/>
<path d="M47.9193 106.232H11.3575C4.82776 106.232 0.4637 99.3956 3.28995 93.509C9.70808 80.1325 20.09 71.2534 37.1087 71.2534C38.1237 71.2534 39.1387 71.2862 40.1559 71.3519C55.7528 72.3428 61.7115 86.3384 58.7431 98C57.4984 102.889 52.9615 106.232 47.9193 106.232Z" fill="#E14844"/>
<path d="M58.727 97.9937C57.5086 102.87 52.9477 106.212 47.9339 106.212H31.2695C38.3614 101.787 43.1914 94.7409 44.2305 86.8834C45.0442 80.5156 43.1914 75.095 41.343 71.4834C42.743 71.619 44.0511 71.8443 45.2695 72.249C57.012 75.6375 61.3477 87.6971 58.727 97.9937Z" fill="#C81E1E"/>
<path d="M47.9171 108.491H11.3596C9.4641 108.496 7.59874 108.017 5.9401 107.099C4.28145 106.182 2.8844 104.856 1.88118 103.248C0.873321 101.663 0.286504 99.8474 0.176261 97.9725C0.066018 96.0976 0.435995 94.2256 1.25118 92.5336C8.74993 76.9127 20.8118 68.9961 37.1109 68.9961C38.1718 68.9961 39.2349 69.0333 40.3002 69.1011C49.4571 69.6808 54.6065 74.2352 57.3146 77.9561C61.4271 83.602 62.7768 91.3086 60.9306 98.558C59.4409 104.407 54.0902 108.491 47.9171 108.491ZM37.1109 73.5133C22.4962 73.5133 12.0968 80.3733 5.32649 94.487C4.83623 95.4895 4.61363 96.6017 4.68032 97.7156C4.74702 98.8294 5.10074 99.9071 5.70712 100.844C6.30566 101.803 7.13877 102.594 8.12778 103.141C9.11679 103.689 10.2291 103.976 11.3596 103.974H47.9171C52.0231 103.974 55.5734 101.288 56.5577 97.4467C58.0737 91.4792 56.9931 85.1858 53.6637 80.6117C50.5968 76.4008 45.8762 73.9792 40.0137 73.6073C39.0473 73.5445 38.0793 73.5146 37.1109 73.5133Z" fill="#131319"/>
<path d="M132.624 106.269H96.228C92.5924 106.269 90.0877 102.546 91.5161 99.2013C93.4367 94.7127 96.633 90.8869 100.708 88.1986C104.784 85.5103 109.559 84.0779 114.441 84.0791C124.722 84.0791 133.545 90.3069 137.338 99.2035C138.764 102.55 136.259 106.269 132.624 106.269Z" fill="#E14844"/>
<path d="M132.612 106.256H118.341C120.237 104.677 123.67 101.109 124.752 95.4628C125.474 91.58 124.752 88.2834 123.941 85.98C129.948 88.4628 134.824 93.2512 137.352 99.2122C138.752 102.552 136.27 106.256 132.612 106.256Z" fill="#C81E1E"/>
<path d="M132.626 108.526H96.2279C95.0073 108.527 93.8057 108.225 92.7312 107.646C91.6566 107.067 90.7429 106.23 90.0723 105.21C89.4031 104.203 88.9949 103.045 88.8846 101.84C88.7742 100.636 88.9651 99.423 89.4401 98.3108C91.531 93.4138 95.0157 89.2397 99.4605 86.3079C103.905 83.376 109.114 81.8158 114.439 81.8214C125.339 81.8214 135.144 88.2964 139.418 98.3152C139.892 99.4274 140.081 100.64 139.969 101.844C139.857 103.047 139.448 104.204 138.777 105.21C138.107 106.23 137.194 107.067 136.12 107.646C135.047 108.224 133.846 108.527 132.626 108.526ZM114.439 86.3364C109.999 86.3323 105.657 87.6333 101.951 90.0778C98.2453 92.5222 95.3399 96.0022 93.5963 100.085C93.2201 100.96 93.312 101.92 93.8435 102.723C94.386 103.539 95.2545 104.009 96.2279 104.009H132.624C133.599 104.009 134.468 103.539 135.01 102.723C135.539 101.92 135.634 100.958 135.262 100.085C133.523 96.0027 130.621 92.5225 126.919 90.0778C123.216 87.633 118.876 86.3319 114.439 86.3364ZM100.181 18.5436L94.8038 9.09797C93.8418 7.42444 92.2793 6.17944 90.4332 5.61547V2.32109C90.4332 1.72208 90.1952 1.14759 89.7717 0.724026C89.3481 0.300458 88.7736 0.0625 88.1746 0.0625C87.5756 0.0625 87.0011 0.300458 86.5775 0.724026C86.154 1.14759 85.916 1.72208 85.916 2.32109V12.6767C85.916 13.2757 86.154 13.8502 86.5775 14.2738C87.0011 14.6974 87.5756 14.9353 88.1746 14.9353C88.7736 14.9353 89.3481 14.6974 89.7717 14.2738C90.1952 13.8502 90.4332 13.2757 90.4332 12.6767V10.8786C90.5754 11.0383 90.7701 11.1411 90.8794 11.3292L96.2541 20.777C96.4003 21.0354 96.596 21.2623 96.8301 21.4448C97.0642 21.6273 97.332 21.7618 97.6182 21.8404C97.9044 21.9191 98.2033 21.9404 98.4978 21.9032C98.7923 21.866 99.0765 21.771 99.3341 21.6236C100.419 21.0067 100.8 19.6264 100.181 18.5436Z" fill="#131319"/>
<path d="M89.1689 29.7657C89.1692 27.4005 89.9547 25.1022 91.4021 23.2316C92.8495 21.3609 94.877 20.0237 97.1664 19.4298L109.832 16.1441C115.491 14.6763 121.01 18.9441 121.01 24.7913V34.7444C121.01 40.5894 115.491 44.8594 109.832 43.3916L97.1664 40.1038C94.877 39.5098 92.8495 38.1726 91.4021 36.302C89.9547 34.4313 89.1692 32.1309 89.1689 29.7657Z" fill="#F7524B"/>
<path d="M112.072 45.9462C111.083 45.9462 110.153 45.8215 109.228 45.5612L96.5906 42.2756C93.8201 41.5589 91.3662 39.9422 89.6145 37.6793C87.8628 35.4164 86.9126 32.6357 86.9131 29.774C86.9095 26.9076 87.8586 24.1214 89.6112 21.8533C91.3638 19.5851 93.8205 17.9637 96.595 17.244L109.265 13.9474C110.918 13.5213 112.647 13.4791 114.32 13.8241C115.992 14.169 117.563 14.892 118.913 15.9377C120.263 16.9833 121.356 18.3239 122.108 19.8569C122.86 21.3899 123.251 23.0746 123.252 24.7821V34.7352C123.252 40.9171 118.236 45.9462 112.072 45.9462ZM112.072 18.1168C111.516 18.1168 110.943 18.1868 110.37 18.3268L97.7259 21.6146C95.9206 22.0845 94.3226 23.1409 93.183 24.6179C92.0434 26.0948 91.4269 27.9085 91.4303 29.774C91.4297 31.6352 92.0475 33.4438 93.1867 34.9156C94.3259 36.3874 95.9218 37.4389 97.7237 37.9049L110.405 41.2015C114.616 42.3827 118.735 39.0074 118.735 34.7352V24.7821C118.733 23.0153 118.03 21.3213 116.781 20.0717C115.532 18.8222 113.838 18.1191 112.072 18.1168Z" fill="#131319"/>
<path d="M120.996 24.7822V34.7353C120.996 39.7884 116.851 43.6909 112.071 43.6909V15.8594C116.851 15.8594 120.996 19.7313 120.996 24.7844V24.7822Z" fill="#FFDC00"/>
<path d="M112.072 45.9462C110.825 45.9462 109.812 44.9377 109.812 43.6887V15.8593C109.812 14.6102 110.823 13.5996 112.072 13.5996C115.037 13.6031 117.879 14.7824 119.975 16.8789C122.071 18.9753 123.25 21.8176 123.253 24.7821V34.7352C123.253 40.9171 118.237 45.9462 112.072 45.9462ZM114.33 18.5105V41.0352C115.621 40.5634 116.737 39.706 117.525 38.5791C118.313 37.4522 118.735 36.1103 118.735 34.7352V24.7821C118.735 21.899 116.898 19.438 114.33 18.5105Z" fill="#131319"/>
<path d="M92.273 34.3242H86.4214C85.7969 34.3377 85.1759 34.2263 84.5949 33.9966C84.014 33.7669 83.4847 33.4236 83.0383 32.9866C82.5918 32.5497 82.237 32.028 81.9949 31.4521C81.7527 30.8762 81.6279 30.2578 81.6279 29.6331C81.6279 29.0084 81.7527 28.39 81.9949 27.8141C82.237 27.2382 82.5918 26.7165 83.0383 26.2796C83.4847 25.8427 84.014 25.4993 84.5949 25.2696C85.1759 25.0399 85.7969 24.9285 86.4214 24.942H92.273C92.8892 24.942 93.4993 25.0634 94.0686 25.2992C94.6379 25.535 95.1552 25.8806 95.5909 26.3163C96.0266 26.752 96.3722 27.2693 96.608 27.8386C96.8438 28.4079 96.9652 29.018 96.9652 29.6342C96.9652 30.2504 96.8438 30.8605 96.608 31.4298C96.3722 31.9991 96.0266 32.5164 95.5909 32.9521C95.1552 33.3878 94.6379 33.7334 94.0686 33.9692C93.4993 34.205 92.8892 34.3242 92.273 34.3242Z" fill="#00BCD4"/>
<path d="M92.2722 36.5839H86.4184C84.5756 36.5816 82.8089 35.8484 81.5061 34.5451C80.2032 33.2418 79.4705 31.4749 79.4688 29.6321C79.4716 27.79 80.2048 26.0242 81.5076 24.7219C82.8104 23.4195 84.5764 22.6869 86.4184 22.6846H92.2722C94.1143 22.6869 95.8803 23.4195 97.183 24.7219C98.4858 26.0242 99.219 27.79 99.2219 29.6321C99.2201 31.4749 98.4875 33.2418 97.1846 34.5451C95.8817 35.8484 94.115 36.5816 92.2722 36.5839ZM86.4184 27.1996C85.0775 27.1996 83.9838 28.2933 83.9838 29.6321C83.9838 30.9752 85.0775 32.0668 86.4184 32.0668H92.2722C93.6131 32.0668 94.7069 30.9752 94.7069 29.6321C94.7069 28.2911 93.6131 27.1996 92.2722 27.1996H86.4184Z" fill="#131319"/>
</symbol>
</svg>
