<svg style="width:0; height:0; visibility: hidden;" xmlns="http://www.w3.org/2000/svg">
	<symbol id="svg-logo" viewBox="0 0 190 80"> 
	<g>
		
		<path d="M114.658 1.25768V31.4419C114.658 31.7563 114.541 32.0511 114.325 32.2869C114.09 32.5227 113.816 32.6603 113.502 32.6603C113.189 32.6603 112.895 32.5424 112.66 32.3066C112.425 32.0708 112.307 31.776 112.307 31.4616V9.05921L105.275 31.7563C105.255 32.0315 105.098 32.2673 104.824 32.4441C104.374 32.7192 103.786 32.7389 103.394 32.4245C103.218 32.2869 103.081 32.1101 103.022 31.9332L103.002 31.8546L95.9501 9.13781V31.4616C95.9501 31.776 95.8325 32.0708 95.5974 32.3066C95.1273 32.7585 94.4025 32.7782 93.9323 32.3066C93.7168 32.0904 93.5797 31.8349 93.5405 31.5205V31.4616V1.25768C93.5405 0.923615 93.6777 0.628847 93.9519 0.393032C94.2066 0.19652 94.5004 0.0786133 94.8334 0.0786133C95.1273 0.0786133 95.6366 0.176869 95.8913 0.903963L104.158 27.3938L112.288 0.943266C112.484 0.393032 112.915 0.0982645 113.483 0.0982645C113.777 0.0982645 114.051 0.19652 114.286 0.412684C114.521 0.609196 114.658 0.923615 114.658 1.25768Z" fill="#2E2E2F" />
		<path d="M137.186 31.4811C137.186 31.7955 137.069 32.0706 136.814 32.3064C136.579 32.5226 136.285 32.6405 135.972 32.6405H121.162C120.849 32.6405 120.555 32.5226 120.32 32.3064C120.085 32.0706 119.947 31.7955 119.947 31.4811V7.07432C119.947 6.7599 119.967 6.40618 120.006 6.01315C120.045 5.58083 120.222 4.97164 120.535 4.12664C120.849 3.28164 121.299 2.53489 121.867 1.9257C123.082 0.707331 124.688 0.0981445 126.647 0.0981445H135.658C135.972 0.0981445 136.266 0.216052 136.481 0.451866C136.716 0.68768 136.834 0.982448 136.834 1.31652C136.834 1.63094 136.716 1.90605 136.481 2.14187C136.266 2.35803 135.972 2.49559 135.658 2.49559H126.647C125.354 2.49559 124.355 2.84931 123.611 3.59606C122.749 4.46071 122.337 5.62013 122.337 7.13327V13.3823H129.997C130.291 13.3823 130.585 13.5003 130.8 13.7164C131.016 13.9326 131.133 14.2273 131.133 14.5221C131.133 14.8365 131.035 15.1117 130.82 15.3475C130.604 15.6029 130.31 15.7208 129.997 15.7208H122.337V30.2824H135.972C136.305 30.2824 136.599 30.4003 136.834 30.6164C137.069 30.8719 137.186 31.1667 137.186 31.4811Z" fill="#2E2E2F" />
		<path d="M159.127 20.339V25.5466C159.127 25.9199 159.107 26.3326 159.048 26.7649C158.99 27.2169 158.813 27.8261 158.5 28.6514C158.186 29.4768 157.736 30.1842 157.187 30.7541C156.032 31.9528 154.425 32.5817 152.427 32.5817H148.509C146.511 32.5817 144.905 31.9725 143.749 30.7541C142.456 29.4178 141.809 27.6689 141.809 25.5466V6.93687C141.809 6.70106 141.809 6.44559 141.849 6.15082C141.888 5.85606 141.947 5.46303 142.045 4.9521C142.162 4.42152 142.358 3.87129 142.652 3.32105C142.946 2.77082 143.298 2.25989 143.729 1.82756C144.493 1.06116 145.394 0.530582 146.433 0.255466C147.216 0.0786048 147.902 0 148.509 0H151.898C153.837 0 155.444 0.609187 156.639 1.80791C157.932 3.14419 158.578 4.89315 158.578 7.03513C158.578 7.34955 158.461 7.64431 158.226 7.88013C158.01 8.11594 157.697 8.2535 157.364 8.2535C157.011 8.23385 156.737 8.07664 156.521 7.82118C156.325 7.58536 156.227 7.31024 156.227 6.99582C156.227 6.79931 156.208 6.54385 156.188 6.22943C156.169 6.05257 156.09 5.65954 155.796 4.9128C155.581 4.34291 155.287 3.87129 154.935 3.51756C154.229 2.77082 153.25 2.4171 151.918 2.4171H148.529C148.059 2.4171 147.549 2.47605 147.04 2.61361C146.393 2.77082 145.904 3.04594 145.531 3.47826C144.65 4.38222 144.219 5.52199 144.219 7.03513V25.5859C144.219 25.802 144.239 26.0575 144.278 26.3523C144.297 26.5291 144.376 26.9221 144.65 27.6689C144.846 28.2388 145.14 28.7104 145.492 29.0641C146.198 29.8109 147.197 30.1646 148.529 30.1646H152.447C153.818 30.1646 154.817 29.8109 155.522 29.0641C156.365 28.2191 156.776 27.099 156.776 25.6448V21.4984H151.506C151.193 21.4984 150.899 21.3805 150.664 21.1447C150.429 20.9285 150.292 20.6338 150.292 20.3193C150.292 20.0049 150.409 19.7101 150.644 19.4743C150.879 19.2385 151.173 19.1206 151.506 19.1206H157.932C158.206 19.1206 158.48 19.1992 158.735 19.3761C159.009 19.6708 159.127 19.9656 159.127 20.339Z" fill="#2E2E2F" />
		<path d="M180.93 4.32315C180.617 3.37989 180.127 2.57419 179.48 1.90605C178.285 0.707331 176.679 0.0981445 174.72 0.0981445H170.9C168.941 0.0981445 167.335 0.707332 166.12 1.92571C165.552 2.53489 165.102 3.28164 164.788 4.12664C164.475 4.97164 164.298 5.58083 164.259 6.01315C164.22 6.40618 164.2 6.7599 164.2 7.07432V31.4811C164.2 31.7955 164.318 32.0706 164.553 32.3064C165.023 32.7781 165.748 32.7584 166.218 32.3064C166.473 32.0706 166.59 31.7955 166.59 31.4811V19.3563H179.049V31.4811C179.049 31.7955 179.167 32.0706 179.422 32.3064C179.657 32.5226 179.931 32.6405 180.264 32.6405C180.558 32.6405 180.852 32.5226 181.067 32.2868C181.302 32.051 181.42 31.7759 181.42 31.4614V7.17257C181.42 6.20966 181.263 5.24676 180.93 4.32315ZM170.881 2.47594H174.7C176.033 2.47594 177.032 2.82966 177.737 3.57641C178.109 3.94978 178.383 4.40176 178.579 4.97164C178.853 5.71838 178.932 6.09176 178.951 6.28827C178.991 6.58304 179.01 6.8385 179.01 7.05467V16.9392H166.551V7.11362C166.551 5.62013 166.963 4.46071 167.785 3.57641C168.549 2.84931 169.568 2.47594 170.881 2.47594Z" fill="#2E2E2F" />
		<path d="M114.658 48.597V78.7813C114.658 79.0957 114.541 79.3905 114.325 79.6263C114.09 79.8621 113.816 79.9996 113.502 79.9996C113.189 79.9996 112.895 79.8817 112.66 79.6459C112.425 79.4101 112.307 79.1153 112.307 78.8009V56.3986L105.275 79.076C105.255 79.3512 105.098 79.6066 104.824 79.7638C104.374 80.0389 103.786 80.0586 103.375 79.7442C103.198 79.6066 103.081 79.4298 103.022 79.2529L103.002 79.1743L95.9501 56.4575V78.7616C95.9501 79.076 95.8326 79.3708 95.5779 79.6066C95.1273 80.0783 94.3829 80.0979 93.9128 79.6066C93.6973 79.3905 93.5602 79.135 93.521 78.8206V78.7616V48.597C93.521 48.263 93.6581 47.9682 93.9324 47.7324C94.187 47.5359 94.4809 47.418 94.8139 47.418C95.1078 47.418 95.6171 47.5359 95.8718 48.263L104.139 74.7528L112.347 48.2826C112.543 47.752 112.974 47.4376 113.542 47.4376C113.835 47.4376 114.11 47.5359 114.345 47.752C114.521 47.9486 114.658 48.2433 114.658 48.597Z" fill="#2E2E2F" />
		<path d="M136.697 51.6431C136.364 50.6998 135.874 49.8941 135.247 49.226C134.052 48.0273 132.446 47.3984 130.487 47.3984H126.667C124.708 47.3984 123.101 48.0076 121.887 49.226C121.319 49.8155 120.868 50.5623 120.555 51.4269C120.261 52.2719 120.085 52.8811 120.026 53.3134C119.987 53.7065 119.967 54.0602 119.967 54.3746V78.7814C119.967 79.0762 120.085 79.3709 120.32 79.5871C120.79 80.0587 121.515 80.0391 121.985 79.5871C122.22 79.3709 122.357 79.0762 122.357 78.7617V66.637H134.816V78.7617C134.816 79.0565 134.934 79.3513 135.188 79.5871C135.423 79.8033 135.717 79.9212 136.031 79.9212C136.344 79.9212 136.618 79.8033 136.853 79.5674C137.088 79.3513 137.206 79.0565 137.206 78.7617V54.4925C137.186 53.5296 137.01 52.5667 136.697 51.6431ZM126.667 49.7959H130.467C131.799 49.7959 132.798 50.1496 133.503 50.916C133.856 51.2697 134.15 51.7414 134.346 52.3112C134.62 53.058 134.698 53.4314 134.718 53.6279C134.738 53.9226 134.757 54.1781 134.757 54.3943V64.2788H122.298V54.4336C122.298 52.9401 122.69 51.7807 123.532 50.8964C124.316 50.1693 125.335 49.7959 126.667 49.7959Z" fill="#2E2E2F" />
		<path d="M159.793 67.6588V72.8664C159.793 73.2397 159.773 73.6524 159.714 74.0848C159.656 74.5367 159.479 75.1656 159.166 75.9713C158.852 76.7966 158.421 77.5041 157.853 78.0739C156.698 79.2727 155.091 79.8819 153.093 79.8819H149.175C147.177 79.8819 145.571 79.2727 144.395 78.0543C143.122 76.718 142.456 74.9691 142.456 72.8467V54.2567C142.456 54.0209 142.476 53.7458 142.495 53.451C142.515 53.1562 142.593 52.7632 142.691 52.2523C142.789 51.7413 143.004 51.1911 143.298 50.6212C143.592 50.071 143.945 49.5797 144.376 49.1277C145.14 48.3613 146.06 47.8308 147.079 47.5753C147.843 47.3984 148.529 47.3198 149.136 47.3198H152.525C154.464 47.3198 156.051 47.929 157.266 49.1474C158.559 50.464 159.205 52.2326 159.205 54.3746C159.205 54.689 159.088 54.9838 158.872 55.2196C158.657 55.4554 158.343 55.593 158.01 55.593C157.657 55.5733 157.364 55.4161 157.168 55.1607C156.972 54.9248 156.874 54.6497 156.874 54.3353C156.874 54.1388 156.854 53.8833 156.815 53.5886C156.796 53.392 156.717 53.0187 156.443 52.2719C156.227 51.702 155.934 51.2304 155.581 50.8767C154.876 50.1299 153.896 49.7566 152.564 49.7566H149.175C148.705 49.7566 148.196 49.8155 147.667 49.9531C147.02 50.1103 146.531 50.3854 146.158 50.8374C145.277 51.7217 144.846 52.8811 144.846 54.3943V72.9057C144.846 73.1218 144.865 73.3773 144.885 73.6721C144.905 73.8686 144.983 74.242 145.257 74.9887C145.453 75.5586 145.747 76.0302 146.1 76.3839C146.805 77.1307 147.804 77.5041 149.136 77.5041H153.054C154.406 77.5041 155.424 77.1503 156.13 76.4036C156.972 75.5586 157.383 74.4581 157.383 73.0039V68.8379H152.114C151.8 68.8379 151.506 68.72 151.271 68.5038C151.036 68.268 150.899 67.9929 150.899 67.6785C150.899 67.364 151.017 67.0693 151.252 66.8335C151.467 66.6173 151.781 66.4797 152.114 66.4797H158.539C158.833 66.4797 159.107 66.5583 159.362 66.7352C159.695 67.0103 159.793 67.3051 159.793 67.6588Z" fill="#2E2E2F" />
		<path d="M167.335 48.3221V78.7618C167.335 79.0762 167.217 79.371 166.982 79.6068C166.747 79.8426 166.453 79.9605 166.14 79.9605C165.846 79.9605 165.552 79.8426 165.317 79.5871C165.102 79.3513 164.984 79.0566 164.984 78.7421C164.964 78.4474 164.945 77.681 164.925 75.5586C164.906 73.4363 164.906 69.9384 164.906 64.1806C164.906 54.8856 164.925 49.5405 164.984 48.2631C164.984 47.9684 165.102 47.6736 165.317 47.4378C165.787 46.9465 166.532 46.9662 166.982 47.4378C167.217 47.7129 167.335 48.0077 167.335 48.3221Z" fill="#2E2E2F" />
		<path d="M190 72.8663C190 73.161 190 73.4165 189.961 73.7113C189.922 73.9864 189.863 74.3794 189.765 74.91C189.647 75.4602 189.452 76.0301 189.158 76.6196C188.864 77.1895 188.492 77.7201 188.041 78.1721C186.885 79.3708 185.279 79.98 183.281 79.98H179.363C177.365 79.98 175.758 79.3708 174.603 78.1524C173.31 76.8162 172.663 75.0672 172.663 72.9449V54.3941C172.663 54.0797 172.683 53.726 172.722 53.333C172.761 52.9203 172.937 52.2915 173.251 51.4465C173.564 50.5818 174.015 49.8351 174.583 49.2455C175.347 48.4791 176.268 47.9486 177.306 47.7127C178.011 47.5162 178.697 47.418 179.343 47.418H182.732C184.672 47.418 186.278 48.0272 187.473 49.2455C188.002 49.7761 188.433 50.4443 188.766 51.191C189.079 51.9377 189.256 52.5273 189.314 52.9989C189.373 53.4509 189.412 53.8832 189.412 54.2762V54.4924C189.412 54.8068 189.295 55.0819 189.04 55.3177C188.55 55.7697 187.767 55.7697 187.336 55.2391C187.14 55.0033 187.042 54.7282 187.042 54.3941C187.042 54.1976 187.022 53.9422 187.003 53.6474C186.983 53.4509 186.905 53.0579 186.631 52.3111C186.435 51.7412 186.141 51.2696 185.788 50.9159C185.083 50.2084 184.143 49.8547 182.909 49.8547H179.343C178.775 49.8547 178.266 49.894 177.854 50.0119C177.188 50.2281 176.659 50.5425 176.346 50.8962C175.465 51.7805 175.053 52.94 175.053 54.4531V72.9449C175.053 73.1414 175.053 73.3772 175.073 73.6523C175.073 73.8095 175.151 74.1829 175.445 75.0082C175.66 75.6371 175.954 76.148 176.326 76.5214C177.051 77.2485 178.05 77.6022 179.363 77.6022H183.281C184.632 77.6022 185.632 77.2288 186.356 76.4821C186.709 76.1284 186.983 75.6567 187.179 75.0869C187.434 74.3598 187.512 73.9667 187.551 73.7899C187.571 73.4951 187.591 73.2396 187.591 73.0038C187.591 72.6698 187.708 72.3553 187.963 72.1392C188.198 71.9034 188.511 71.8051 188.883 71.8051C189.079 71.8051 189.373 71.8641 189.647 72.1785C189.824 72.375 189.941 72.6108 190 72.8663Z" fill="#2E2E2F" />
		<path d="M68.2112 79.8034H11.1661C4.99536 79.8034 0 74.7923 0 68.6022V11.3779C0 5.18781 4.99536 0.176758 11.1661 0.176758H68.2112C74.3819 0.176758 79.3773 5.18781 79.3773 11.3779V68.6022C79.3773 74.7923 74.3819 79.8034 68.2112 79.8034Z" fill="#2E2E2F" />
		<path d="M61.5899 70.6461C57.5544 70.6461 54.283 67.3644 54.283 63.3162C54.283 59.2681 57.5544 55.9863 61.5899 55.9863C65.6254 55.9863 68.8968 59.2681 68.8968 63.3162C68.8772 67.3644 65.6254 70.6461 61.5899 70.6461Z" fill="#E83565" />
		<path d="M68.7792 22.8541V44.9814C68.7792 47.0054 67.9564 48.833 66.6243 50.1693C65.351 51.4466 63.5879 52.2523 61.6486 52.3113C57.5151 52.4095 54.1653 48.9706 54.1653 44.8242V26.4699C54.1653 25.4874 53.7735 24.5834 53.1075 23.9153C52.461 23.2668 51.5599 22.8541 50.5608 22.8541C49.5813 22.8541 48.6802 23.2668 48.0142 23.9153C47.9946 23.9349 47.9554 23.9939 47.9162 24.0135C47.8379 24.1118 47.7399 24.2101 47.6616 24.328C47.2306 24.9371 46.9563 25.6839 46.9563 26.4699V48.7151C46.9563 50.7392 46.1336 52.5667 44.8211 53.903C43.5477 55.2 41.7847 56.0057 39.8453 56.045C35.7119 56.1432 32.3425 52.7043 32.3425 48.5382V26.4503C32.3425 25.6249 32.0486 24.8389 31.5785 24.2297C31.5589 24.1904 31.5001 24.1511 31.4609 24.1118C31.4217 24.0332 31.3434 23.9939 31.2846 23.9153C30.6382 23.2668 29.737 22.8541 28.738 22.8541C27.7389 22.8541 26.8378 23.2668 26.1913 23.9153C25.5448 24.5834 25.1335 25.4874 25.1335 26.4699V63.3159C25.1335 65.34 24.3107 67.1675 22.9982 68.5038C21.6661 69.8401 19.8443 70.6655 17.8265 70.6655H17.8069C13.7715 70.6655 10.5 67.3837 10.5 63.3356V22.8934C10.5 14.7775 17.0625 8.19434 25.1531 8.19434H32.2837C32.3816 8.19434 32.793 8.19434 32.891 8.19434C34.9087 8.19434 36.7305 9.01969 38.0626 10.3363C38.6307 10.9062 39.3947 12.2425 39.571 12.5569C39.5906 12.5962 39.6298 12.5962 39.6494 12.5569C39.8257 12.2425 40.5701 10.9062 41.1382 10.3363C42.4703 9.01969 44.2921 8.19434 46.3099 8.19434C46.4078 8.19434 46.5254 8.19434 46.6233 8.21399C46.7212 8.19434 46.8192 8.19434 46.9171 8.19434H54.1065C54.4004 8.19434 54.6746 8.21399 54.9685 8.21399C58.6513 8.43015 61.9816 10.0219 64.4303 12.4783C67.1532 15.1312 68.7792 18.7863 68.7792 22.8541Z" fill="white" />

	</g>
	</symbol>
	
	<symbol id="svg-cross" viewBox="0 0 26 26">
		<g>
		
			<path d="M1.66679 25.4665C1.51783 25.467 1.37023 25.438 1.23252 25.3812C1.0948 25.3244 0.969689 25.241 0.864395 25.1356C0.653436 24.9218 0.535156 24.6335 0.535156 24.3332C0.535156 24.0328 0.653436 23.7446 0.864395 23.5308L23.5311 0.864103C23.7439 0.651294 24.0325 0.531738 24.3335 0.531738C24.6344 0.531738 24.9231 0.651294 25.1359 0.864103C25.3487 1.07691 25.4682 1.36554 25.4682 1.6665C25.4682 1.96746 25.3487 2.25609 25.1359 2.4689L2.46919 25.1356C2.3639 25.241 2.23879 25.3244 2.10107 25.3812C1.96336 25.438 1.81576 25.467 1.66679 25.4665V25.4665Z" fill="currentColor" />
			<path d="M24.3334 25.4665C24.1844 25.467 24.0369 25.438 23.8991 25.3812C23.7614 25.3244 23.6363 25.241 23.531 25.1356L0.864347 2.4689C0.651538 2.25609 0.531982 1.96746 0.531982 1.6665C0.531982 1.36554 0.651538 1.07691 0.864347 0.864103C1.07716 0.651294 1.36579 0.531738 1.66675 0.531738C1.96771 0.531738 2.25634 0.651294 2.46915 0.864103L25.1358 23.5308C25.3468 23.7446 25.4651 24.0328 25.4651 24.3332C25.4651 24.6335 25.3468 24.9218 25.1358 25.1356C25.0305 25.241 24.9054 25.3244 24.7677 25.3812C24.63 25.438 24.4824 25.467 24.3334 25.4665V25.4665Z" fill="currentColor" />

		</g>
	</symbol>
	<symbol id="svg-out" viewBox="0 0 27 28">
		<g>
			
			<path fill-rule="evenodd" clip-rule="evenodd" d="M6.47238 8.88984C6.94659 8.41563 7.71543 8.41563 8.18964 8.88984C8.66385 9.36404 8.66385 10.1329 8.18964 10.6071L6.01078 12.786H17.2518C17.9224 12.786 18.4661 13.3296 18.4661 14.0002C18.4661 14.6709 17.9224 15.2145 17.2518 15.2145H6.01079L8.18964 17.3934C8.66385 17.8676 8.66385 18.6364 8.18964 19.1106C7.71543 19.5848 6.94659 19.5848 6.47238 19.1106L2.2264 14.8647C2.00324 14.6445 1.86492 14.3385 1.86492 14.0002C1.86492 13.6626 2.0027 13.3572 2.22509 13.1371L6.47238 8.88984Z" fill="currentColor" />
			<path fill-rule="evenodd" clip-rule="evenodd" d="M3.12199 4.1223C7.11727 0.127013 13.1258 -1.06818 18.3459 1.09405C23.566 3.25627 26.9696 8.3501 26.9696 14.0003C26.9696 19.6505 23.566 24.7443 18.3459 26.9065C13.1258 29.0687 7.11727 27.8735 3.12199 23.8783L3.12059 23.8769C2.0516 22.8043 1.16651 21.5631 0.500848 20.203C0.20604 19.6007 0.455358 18.8734 1.05772 18.5786C1.66007 18.2838 2.38737 18.5331 2.68218 19.1354C3.23061 20.256 3.95981 21.2786 4.84052 22.1623C8.14123 25.462 13.1045 26.4489 17.4166 24.6628C21.7292 22.8765 24.541 18.6682 24.541 14.0003C24.541 9.33237 21.7292 5.12409 17.4166 3.33776C13.1043 1.55155 8.14065 2.5387 4.83994 5.83887C3.9595 6.72234 3.23049 7.74472 2.68216 8.86501C2.38734 9.46736 1.66004 9.71666 1.05769 9.42183C0.455338 9.12701 0.206038 8.39971 0.500861 7.79736C1.16654 6.43731 2.05163 5.19615 3.1206 4.1237L3.12199 4.1223Z" fill="currentColor" />

		</g>
	</symbol>
	<symbol id="svg-login" viewBox="0 0 18 20">
	<g>
	
		<path fill-rule="evenodd" clip-rule="evenodd" d="M9.05554 6.69302C8.7487 6.38618 8.25121 6.38618 7.94437 6.69302C7.63753 6.99986 7.63753 7.49735 7.94437 7.80419L9.35423 9.21404H2.08064C1.6467 9.21404 1.29492 9.56582 1.29492 9.99976C1.29492 10.4337 1.6467 10.7855 2.08064 10.7855H9.35422L7.94437 12.1953C7.63753 12.5022 7.63753 12.9996 7.94437 13.3065C8.25121 13.6133 8.7487 13.6133 9.05554 13.3065L11.8029 10.5591C11.9473 10.4166 12.0368 10.2186 12.0368 9.99976C12.0368 9.78131 11.9477 9.58368 11.8038 9.44127L9.05554 6.69302Z" fill="currentColor" />
		<path fill-rule="evenodd" clip-rule="evenodd" d="M2.10848 3.60823C4.69366 1.02305 8.58156 0.249688 11.9593 1.64877C15.337 3.04786 17.5393 6.34387 17.5393 9.99986C17.5393 13.6559 15.337 16.9519 11.9593 18.351C8.58156 19.75 4.69366 18.9767 2.10848 16.3915L2.10757 16.3906C1.41587 15.6966 0.843168 14.8935 0.412442 14.0134C0.221684 13.6236 0.383008 13.153 0.772769 12.9623C1.16253 12.7715 1.63313 12.9329 1.82389 13.3226C2.17876 14.0477 2.6506 14.7094 3.22047 15.2811C5.35622 17.4163 8.56776 18.0549 11.3579 16.8991C14.1484 15.7433 15.9679 13.0203 15.9679 9.99986C15.9679 6.97945 14.1484 4.25645 11.3579 3.10059C8.5676 1.94481 5.35585 2.58355 3.22009 4.71895C2.65039 5.29061 2.17868 5.95215 1.82388 6.67704C1.63311 7.0668 1.16251 7.22811 0.772751 7.03734C0.382995 6.84657 0.221683 6.37596 0.412451 5.98621C0.843186 5.10618 1.41589 4.30308 2.10758 3.60913L2.10848 3.60823Z" fill="currentColor" />

	</g>
	</symbol>
	<symbol id="svg-reload" viewBox="0 0 23 22">
		<g>
						
			<path fill-rule="evenodd" clip-rule="evenodd" d="M5.75368 3.08001C5.75368 2.675 5.42536 2.34668 5.02035 2.34668C4.61534 2.34668 4.28702 2.675 4.28702 3.08001V7.48817C4.28635 7.52169 4.28798 7.55512 4.29186 7.58823C4.30294 7.68451 4.33266 7.77511 4.37733 7.85633C4.42939 7.95142 4.50312 8.03599 4.59638 8.10191C4.66383 8.14978 4.73972 8.18654 4.82139 8.2095C4.89102 8.22917 4.96223 8.23808 5.03278 8.23681H9.44088C9.84589 8.23681 10.1742 7.90849 10.1742 7.50348C10.1742 7.09847 9.84589 6.77015 9.44088 6.77015H6.45954C7.2066 5.93691 8.15154 5.29408 9.21626 4.9067C10.7132 4.36205 12.3532 4.35643 13.8539 4.89081C15.3545 5.4252 16.6218 6.46613 17.4376 7.83434C18.2534 9.20256 18.5665 10.8124 18.3231 12.3867C18.0797 13.9609 17.295 15.401 16.1041 16.4589C14.9132 17.5169 13.3906 18.1264 11.7987 18.1826C10.2067 18.2388 8.64496 17.7381 7.38242 16.7668C6.11987 15.7955 5.23555 14.4143 4.88174 12.8611C4.79178 12.4662 4.39873 12.219 4.00384 12.309C3.60895 12.399 3.36175 12.792 3.45171 13.1869C3.88131 15.0728 4.95508 16.7498 6.48809 17.9293C8.0211 19.1087 9.91739 19.7166 11.8504 19.6484C13.7834 19.5801 15.6321 18.84 17.0781 17.5554C18.5242 16.2709 19.477 14.5223 19.7726 12.6108C20.0681 10.6993 19.6879 8.74456 18.6974 7.08324C17.7068 5.42192 16.168 4.158 14.3459 3.50914C12.5238 2.86028 10.5324 2.8671 8.71479 3.52842C7.59913 3.93435 6.59178 4.57126 5.75368 5.3884V3.08001Z" fill="currentColor" />

		</g>
	</symbol>
	<symbol id="svg-menu" viewBox="0 0 32 32">
	<g>
		
		<path d="M9.7109 14.5709C8.60681 14.5698 7.54827 14.1307 6.76756 13.35C5.98686 12.5693 5.54776 11.5107 5.54663 10.4066V4.48024C5.54663 4.19734 5.65901 3.92603 5.85905 3.72599C6.05909 3.52595 6.3304 3.41357 6.6133 3.41357C6.8962 3.41357 7.16751 3.52595 7.36754 3.72599C7.56758 3.92603 7.67996 4.19734 7.67996 4.48024V10.4066C7.67996 10.9453 7.89394 11.4619 8.27481 11.8427C8.65568 12.2236 9.17226 12.4376 9.7109 12.4376C10.2495 12.4376 10.7661 12.2236 11.147 11.8427C11.5279 11.4619 11.7418 10.9453 11.7418 10.4066V4.48024C11.7418 4.19734 11.8542 3.92603 12.0543 3.72599C12.2543 3.52595 12.5256 3.41357 12.8085 3.41357C13.0914 3.41357 13.3627 3.52595 13.5627 3.72599C13.7628 3.92603 13.8752 4.19734 13.8752 4.48024V10.4066C13.874 11.5107 13.4349 12.5693 12.6542 13.35C11.8735 14.1307 10.815 14.5698 9.7109 14.5709V14.5709Z" fill="#1F1F1F" />
		<path d="M9.71095 10.9058C9.42806 10.9058 9.15675 10.7935 8.95671 10.5934C8.75667 10.3934 8.64429 10.1221 8.64429 9.83917V4.48024C8.64429 4.19734 8.75667 3.92603 8.95671 3.72599C9.15675 3.52595 9.42806 3.41357 9.71095 3.41357C9.99385 3.41357 10.2652 3.52595 10.4652 3.72599C10.6652 3.92603 10.7776 4.19734 10.7776 4.48024V9.83917C10.7776 10.1221 10.6652 10.3934 10.4652 10.5934C10.2652 10.7935 9.99385 10.9058 9.71095 10.9058V10.9058Z" fill="#1F1F1F" />
		<path d="M9.71095 28.5868C9.42806 28.5868 9.15675 28.4745 8.95671 28.2744C8.75667 28.0744 8.64429 27.8031 8.64429 27.5202V13.5042C8.64429 13.2213 8.75667 12.95 8.95671 12.7499C9.15675 12.5499 9.42806 12.4375 9.71095 12.4375C9.99385 12.4375 10.2652 12.5499 10.4652 12.7499C10.6652 12.95 10.7776 13.2213 10.7776 13.5042V27.5202C10.7776 27.8031 10.6652 28.0744 10.4652 28.2744C10.2652 28.4745 9.99385 28.5868 9.71095 28.5868Z" fill="#1F1F1F" />
		<path d="M12.8 10.9058H6.6133C6.3304 10.9058 6.05909 10.7934 5.85905 10.5934C5.65901 10.3933 5.54663 10.122 5.54663 9.83913C5.54663 9.55623 5.65901 9.28492 5.85905 9.08488C6.05909 8.88484 6.3304 8.77246 6.6133 8.77246H12.8C13.0829 8.77246 13.3542 8.88484 13.5542 9.08488C13.7542 9.28492 13.8666 9.55623 13.8666 9.83913C13.8666 10.122 13.7542 10.3933 13.5542 10.5934C13.3542 10.7934 13.0829 10.9058 12.8 10.9058V10.9058Z" fill="#1F1F1F" />
		<path d="M25.6939 19.5288H20.4502C20.1673 19.5288 19.896 19.4164 19.696 19.2164C19.4959 19.0163 19.3835 18.745 19.3835 18.4621V4.48024C19.3835 4.19734 19.4959 3.92603 19.696 3.72599C19.896 3.52595 20.1673 3.41357 20.4502 3.41357C22.1227 3.4147 23.7265 4.07932 24.9096 5.26159C26.0926 6.44385 26.7584 8.04717 26.7606 9.71971V18.4621C26.7606 18.745 26.6482 19.0163 26.4482 19.2164C26.2482 19.4164 25.9768 19.5288 25.6939 19.5288V19.5288ZM21.5169 17.3954H24.6273V9.71544C24.6253 8.79413 24.3194 7.8992 23.7571 7.16944C23.1947 6.43967 22.4073 5.91584 21.5169 5.67917V17.3954Z" fill="#1F1F1F" />
		<path d="M21.9819 28.587C21.2935 28.587 20.6333 28.3138 20.1461 27.8274C19.6589 27.3411 19.3847 26.6812 19.3835 25.9928V18.4622C19.3835 18.1793 19.4959 17.908 19.696 17.7079C19.896 17.5079 20.1673 17.3955 20.4502 17.3955C20.7331 17.3955 21.0044 17.5079 21.2045 17.7079C21.4045 17.908 21.5169 18.1793 21.5169 18.4622V25.9928C21.5279 26.1079 21.5815 26.2148 21.6671 26.2926C21.7527 26.3703 21.8642 26.4134 21.9798 26.4134C22.0955 26.4134 22.2069 26.3703 22.2925 26.2926C22.3781 26.2148 22.4317 26.1079 22.4427 25.9928V18.4622C22.4427 18.1793 22.5551 17.908 22.7552 17.7079C22.9552 17.5079 23.2265 17.3955 23.5094 17.3955C23.7923 17.3955 24.0636 17.5079 24.2637 17.7079C24.4637 17.908 24.5761 18.1793 24.5761 18.4622V25.9928C24.5749 26.6805 24.3013 27.3397 23.815 27.8259C23.3288 28.3122 22.6696 28.5858 21.9819 28.587V28.587Z" fill="#1F1F1F" />

	</g>
	</symbol>
	<symbol id="svg-cart" viewBox="0 0 32 32">
	<g>
	
		<path d="M21.5893 20.9067H13.3589C12.3202 20.9057 11.3141 20.5445 10.512 19.8847C9.70985 19.225 9.16133 18.3075 8.95993 17.2886L7.67993 10.7264C7.67993 10.7264 7.67993 10.7051 7.67993 10.6923L7.34286 8.91736C7.25519 8.46225 7.03447 8.04337 6.70864 7.71375C6.38282 7.38413 5.96653 7.15857 5.51246 7.06563L4.26659 6.8267C4.12792 6.79868 3.99612 6.74363 3.87872 6.66467C3.76132 6.58572 3.66062 6.48442 3.58237 6.36655C3.42434 6.12851 3.36735 5.83743 3.42393 5.55736C3.48051 5.2773 3.64602 5.03117 3.88407 4.87314C4.12212 4.71511 4.41319 4.65812 4.69326 4.7147L5.94766 4.97496C6.8169 5.1547 7.61298 5.58907 8.23452 6.22277C8.85605 6.85646 9.27493 7.66081 9.43779 8.53336L9.61699 9.4635H27.537C27.7099 9.46333 27.8802 9.50518 28.0333 9.58546C28.1864 9.66573 28.3177 9.78201 28.4159 9.9243C28.5146 10.0665 28.5767 10.2308 28.5968 10.4027C28.6169 10.5746 28.5943 10.7488 28.5311 10.9099L25.7749 18.0438C25.4446 18.8856 24.869 19.6087 24.1226 20.1192C23.3762 20.6298 22.4935 20.9041 21.5893 20.9067V20.9067ZM10.0266 11.5755L11.0549 16.8832C11.1606 17.4164 11.4481 17.8962 11.8683 18.241C12.2885 18.5857 12.8153 18.7739 13.3589 18.7734H21.5893C22.0639 18.772 22.5271 18.6276 22.9183 18.3589C23.3096 18.0902 23.6107 17.7097 23.7823 17.2672L25.9711 11.5627L10.0266 11.5755Z" fill="#1F1F1F" />
		<path d="M21.4698 27.8057C22.648 27.8057 23.6031 26.8506 23.6031 25.6724C23.6031 24.4942 22.648 23.5391 21.4698 23.5391C20.2916 23.5391 19.3364 24.4942 19.3364 25.6724C19.3364 26.8506 20.2916 27.8057 21.4698 27.8057Z" fill="#1F1F1F" />
		<path d="M13.0901 27.8057C14.2683 27.8057 15.2235 26.8506 15.2235 25.6724C15.2235 24.4942 14.2683 23.5391 13.0901 23.5391C11.9119 23.5391 10.9568 24.4942 10.9568 25.6724C10.9568 26.8506 11.9119 27.8057 13.0901 27.8057Z" fill="#1F1F1F" />

	</g>
	</symbol>
	<symbol id="svg-list" viewBox="0 0 32 32">
		<g>
	
		<path d="M27.5199 17.0664H12.1599C11.877 17.0664 11.6057 16.9541 11.4057 16.754C11.2056 16.554 11.0933 16.2827 11.0933 15.9998C11.0933 15.7169 11.2056 15.4456 11.4057 15.2455C11.6057 15.0455 11.877 14.9331 12.1599 14.9331H27.5199C27.8028 14.9331 28.0741 15.0455 28.2742 15.2455C28.4742 15.4456 28.5866 15.7169 28.5866 15.9998C28.5866 16.2827 28.4742 16.554 28.2742 16.754C28.0741 16.9541 27.8028 17.0664 27.5199 17.0664Z" fill="#1F1F1F" />
		<path d="M7.04 17.0664H4.48C4.1971 17.0664 3.92579 16.9541 3.72575 16.754C3.52571 16.554 3.41333 16.2827 3.41333 15.9998C3.41333 15.7169 3.52571 15.4456 3.72575 15.2455C3.92579 15.0455 4.1971 14.9331 4.48 14.9331H7.04C7.32289 14.9331 7.5942 15.0455 7.79424 15.2455C7.99428 15.4456 8.10666 15.7169 8.10666 15.9998C8.10666 16.2827 7.99428 16.554 7.79424 16.754C7.5942 16.9541 7.32289 17.0664 7.04 17.0664Z" fill="#1F1F1F" />
		<path d="M27.5199 23.4663H12.1599C11.877 23.4663 11.6057 23.354 11.4057 23.1539C11.2056 22.9539 11.0933 22.6826 11.0933 22.3997C11.0933 22.1168 11.2056 21.8455 11.4057 21.6454C11.6057 21.4454 11.877 21.333 12.1599 21.333H27.5199C27.8028 21.333 28.0741 21.4454 28.2742 21.6454C28.4742 21.8455 28.5866 22.1168 28.5866 22.3997C28.5866 22.6826 28.4742 22.9539 28.2742 23.1539C28.0741 23.354 27.8028 23.4663 27.5199 23.4663Z" fill="#1F1F1F" />
		<path d="M7.04 23.4663H4.48C4.1971 23.4663 3.92579 23.354 3.72575 23.1539C3.52571 22.9539 3.41333 22.6826 3.41333 22.3997C3.41333 22.1168 3.52571 21.8455 3.72575 21.6454C3.92579 21.4454 4.1971 21.333 4.48 21.333H7.04C7.32289 21.333 7.5942 21.4454 7.79424 21.6454C7.99428 21.8455 8.10666 22.1168 8.10666 22.3997C8.10666 22.6826 7.99428 22.9539 7.79424 23.1539C7.5942 23.354 7.32289 23.4663 7.04 23.4663Z" fill="#1F1F1F" />
		<path d="M27.5199 10.6665H12.1599C11.877 10.6665 11.6057 10.5542 11.4057 10.3541C11.2056 10.1541 11.0933 9.88277 11.0933 9.59987C11.0933 9.31697 11.2056 9.04566 11.4057 8.84562C11.6057 8.64558 11.877 8.5332 12.1599 8.5332H27.5199C27.8028 8.5332 28.0741 8.64558 28.2742 8.84562C28.4742 9.04566 28.5866 9.31697 28.5866 9.59987C28.5866 9.88277 28.4742 10.1541 28.2742 10.3541C28.0741 10.5542 27.8028 10.6665 27.5199 10.6665Z" fill="#1F1F1F" />
		<path d="M7.04 10.6665H4.48C4.1971 10.6665 3.92579 10.5542 3.72575 10.3541C3.52571 10.1541 3.41333 9.88277 3.41333 9.59987C3.41333 9.31697 3.52571 9.04566 3.72575 8.84562C3.92579 8.64558 4.1971 8.5332 4.48 8.5332H7.04C7.32289 8.5332 7.5942 8.64558 7.79424 8.84562C7.99428 9.04566 8.10666 9.31697 8.10666 9.59987C8.10666 9.88277 7.99428 10.1541 7.79424 10.3541C7.5942 10.5542 7.32289 10.6665 7.04 10.6665Z" fill="#1F1F1F" />

	</g>
	</symbol>
	<symbol id="svg-star"  viewBox="0 0 32 32">
		<g>

  			<path d="M23.1212 28.3135C22.9448 28.3151 22.7706 28.2741 22.6134 28.194L16.0001 24.7465L9.38675 28.194C9.21047 28.2835 9.013 28.3229 8.81587 28.3078C8.61875 28.2928 8.42954 28.2239 8.26889 28.1087C8.10854 27.9925 7.9837 27.8339 7.90835 27.6508C7.83299 27.4677 7.8101 27.2672 7.84222 27.0719L9.06675 19.7033L3.73342 14.4639C3.59147 14.325 3.49109 14.1493 3.44358 13.9565C3.39607 13.7637 3.40332 13.5615 3.46451 13.3726C3.52571 13.1837 3.63841 13.0156 3.78994 12.8873C3.94148 12.759 4.12582 12.6755 4.32222 12.6463L11.7078 11.5199L15.0444 4.85532C15.1337 4.67855 15.2704 4.53003 15.4391 4.42627C15.6078 4.32251 15.802 4.26758 16.0001 4.26758C16.1982 4.26758 16.3924 4.32251 16.5611 4.42627C16.7298 4.53003 16.8664 4.67855 16.9558 4.85532L20.2924 11.5199L27.678 12.6292C27.8744 12.6584 28.0587 12.7419 28.2102 12.8702C28.3618 12.9985 28.4745 13.1666 28.5357 13.3555C28.5969 13.5444 28.6041 13.7466 28.5566 13.9394C28.5091 14.1322 28.4087 14.3079 28.2668 14.4468L22.9462 19.7033L24.1708 27.0719C24.1961 27.2244 24.188 27.3807 24.147 27.5298C24.1059 27.6789 24.033 27.8173 23.9331 27.9354C23.8333 28.0535 23.7089 28.1485 23.5687 28.2138C23.4285 28.2791 23.2758 28.3131 23.1212 28.3135V28.3135ZM16.0001 22.4809C16.1713 22.4814 16.3398 22.5238 16.4908 22.6047L21.7174 25.314L20.7532 19.5071C20.7254 19.3384 20.7385 19.1656 20.7912 19.0031C20.8439 18.8405 20.9347 18.6929 21.0561 18.5727L25.2502 14.4383L19.4305 13.5636C19.2607 13.5379 19.0996 13.4718 18.9608 13.3708C18.8219 13.2698 18.7094 13.1369 18.6326 12.9833L16.0001 7.71826L13.3676 12.9833C13.2908 13.1369 13.1783 13.2698 13.0394 13.3708C12.9006 13.4718 12.7395 13.5379 12.5697 13.5636L6.74995 14.4383L10.9441 18.5727C11.0655 18.6929 11.1563 18.8405 11.209 19.0031C11.2617 19.1656 11.2747 19.3384 11.247 19.5071L10.2828 25.314L15.5094 22.6132C15.6596 22.5294 15.8281 22.484 16.0001 22.4809V22.4809Z" fill="#1F1F1F" />

		</g>
	</symbol>
	<symbol id="svg-discount" viewBox="0 0 32 32">
		<g>

  			<path d="M16.3626 29.0134C16.018 29.016 15.6763 28.9498 15.3576 28.8186C15.0389 28.6875 14.7496 28.4941 14.5066 28.2497L13.1839 26.9142C13.1294 26.8584 13.0618 26.8171 12.9873 26.7941C12.9128 26.771 12.8338 26.7668 12.7573 26.7819L10.8842 27.0763C10.2008 27.1845 9.50238 27.017 8.94239 26.6106C8.3824 26.2042 8.0066 25.5921 7.89752 24.9089L7.62445 23.0401C7.6122 22.9663 7.58311 22.8964 7.53945 22.8357C7.4958 22.7751 7.43874 22.7253 7.37272 22.6902L5.68739 21.8369C5.0772 21.5213 4.61567 20.9783 4.40251 20.3253C4.18935 19.6722 4.24168 18.9615 4.54819 18.3467L5.40152 16.6401C5.43457 16.5738 5.45178 16.5008 5.45178 16.4267C5.45178 16.3527 5.43457 16.2797 5.40152 16.2134L4.54819 14.5067C4.23767 13.8906 4.18317 13.1768 4.39654 12.5207C4.60991 11.8646 5.07387 11.3194 5.68739 11.0038L7.39405 10.1505C7.45497 10.1148 7.50722 10.0661 7.54706 10.0078C7.5869 9.9495 7.61333 9.88312 7.62445 9.81341L7.92312 7.94461C7.9771 7.60642 8.09719 7.28218 8.27652 6.99042C8.45585 6.69866 8.69091 6.4451 8.96827 6.24421C9.24562 6.04332 9.55985 5.89905 9.89298 5.81964C10.2261 5.74023 10.5716 5.72724 10.9098 5.78141L12.7786 6.07154C12.8551 6.08629 12.9341 6.08194 13.0085 6.05887C13.0829 6.0358 13.1505 5.99472 13.2053 5.93927L14.5066 4.59954C14.9964 4.11413 15.6581 3.8418 16.3477 3.8418C17.0372 3.8418 17.6989 4.11413 18.1887 4.59954L19.5285 5.93501C19.583 5.99077 19.6505 6.03206 19.725 6.05515C19.7995 6.07825 19.8786 6.08241 19.9551 6.06727L21.8239 5.77714C22.5067 5.66892 23.2045 5.83586 23.7644 6.24137C24.3243 6.64688 24.7005 7.25786 24.8106 7.94034L25.1093 9.80914C25.1199 9.88344 25.1483 9.95407 25.1921 10.015C25.236 10.0759 25.2939 10.1253 25.361 10.159L27.0677 11.0123C27.6745 11.3324 28.1313 11.878 28.3396 12.5316C28.5479 13.1853 28.491 13.8946 28.1813 14.5067L27.3066 16.2134C27.2735 16.2797 27.2563 16.3527 27.2563 16.4267C27.2563 16.5008 27.2735 16.5738 27.3066 16.6401L28.1599 18.3467C28.4706 18.9635 28.5252 19.6779 28.3119 20.3347C28.0986 20.9915 27.6345 21.5375 27.0207 21.8539L25.3141 22.7073C25.2474 22.7415 25.1898 22.7911 25.1461 22.8519C25.1023 22.9127 25.0736 22.9831 25.0623 23.0571L24.7637 24.9259C24.6535 25.6087 24.2775 26.22 23.7177 26.6262C23.158 27.0324 22.4602 27.2004 21.777 27.0934L19.9082 26.799C19.8317 26.7839 19.7526 26.788 19.6781 26.8111C19.6036 26.8342 19.536 26.8755 19.4815 26.9313L18.1418 28.2667C17.6668 28.7351 17.0296 29.0025 16.3626 29.0134V29.0134ZM12.8426 24.6401C13.535 24.6414 14.1989 24.9158 14.6901 25.4038L16.0298 26.7393C16.1192 26.8271 16.2394 26.8763 16.3647 26.8763C16.49 26.8763 16.6103 26.8271 16.6997 26.7393L18.0394 25.4038C18.3306 25.1142 18.6859 24.8972 19.0765 24.7705C19.4672 24.6437 19.8822 24.6107 20.2879 24.6742L22.1567 24.9686C22.2811 24.987 22.4077 24.9557 22.5091 24.8815C22.6105 24.8072 22.6786 24.6959 22.6986 24.5718L22.9973 22.703C23.0629 22.2982 23.2226 21.9144 23.4634 21.5825C23.7042 21.2505 24.0195 20.9796 24.3839 20.7915L26.0906 19.9382C26.1464 19.9106 26.1962 19.8721 26.237 19.8251C26.2778 19.778 26.3089 19.7233 26.3283 19.6641C26.3478 19.605 26.3553 19.5425 26.3504 19.4804C26.3454 19.4183 26.3282 19.3578 26.2997 19.3025L25.4463 17.5958C25.2611 17.2301 25.1646 16.826 25.1646 16.4161C25.1646 16.0062 25.2611 15.602 25.4463 15.2363L26.2997 13.5297C26.3561 13.4176 26.3658 13.2877 26.3266 13.1686C26.2874 13.0494 26.2025 12.9506 26.0906 12.8939L24.3839 12.0406C24.0191 11.8531 23.7035 11.5823 23.4626 11.2503C23.2217 10.9182 23.0623 10.5342 22.9973 10.1291L22.6986 8.26034C22.6787 8.13649 22.6104 8.0256 22.5088 7.95201C22.4072 7.87841 22.2806 7.84813 22.1567 7.86781L20.2879 8.15794C19.8822 8.22072 19.4674 8.18741 19.0768 8.06069C18.6863 7.93397 18.331 7.71738 18.0394 7.42834L16.6997 6.10994C16.6103 6.02212 16.49 5.97292 16.3647 5.97292C16.2394 5.97292 16.1192 6.02212 16.0298 6.10994L14.6901 7.44541C14.3997 7.73616 14.0444 7.95388 13.6536 8.08071C13.2627 8.20754 12.8473 8.23986 12.4415 8.17501L10.5727 7.88487C10.5113 7.87455 10.4485 7.87654 10.3878 7.89075C10.3272 7.90496 10.27 7.93109 10.2196 7.96762C10.1691 8.00416 10.1265 8.05036 10.0941 8.10355C10.0617 8.15673 10.0402 8.21583 10.0309 8.27741L9.73219 10.1462C9.66573 10.5513 9.5053 10.9352 9.26375 11.2671C9.02221 11.5991 8.70627 11.8698 8.34125 12.0577L6.63459 12.911C6.52338 12.9684 6.43941 13.0675 6.40104 13.1866C6.36266 13.3057 6.373 13.4352 6.42979 13.5467L7.28312 15.2534C7.46831 15.6191 7.56481 16.0232 7.56481 16.4331C7.56481 16.843 7.46831 17.2472 7.28312 17.6129L6.42979 19.3195C6.373 19.4311 6.36266 19.5605 6.40104 19.6797C6.43941 19.7988 6.52338 19.8979 6.63459 19.9553L8.34125 20.8086C8.70627 20.9965 9.02221 21.2672 9.26375 21.5991C9.5053 21.9311 9.66573 22.315 9.73219 22.7201L10.0309 24.5889C10.0402 24.6506 10.0617 24.7098 10.094 24.7632C10.1264 24.8166 10.1689 24.8631 10.2193 24.8999C10.2696 24.9368 10.3268 24.9634 10.3874 24.9781C10.4481 24.9928 10.5111 24.9954 10.5727 24.9857L12.4415 24.6913C12.5737 24.6638 12.7078 24.6467 12.8426 24.6401V24.6401Z" fill="#1F1F1F" />
			<path d="M20.4159 21.5466C20.276 21.5467 20.1375 21.5188 20.0085 21.4646C19.8796 21.4104 19.7628 21.3309 19.6649 21.2309L11.5583 13.1242C11.3766 12.921 11.2797 12.656 11.2873 12.3835C11.2949 12.111 11.4065 11.8518 11.5993 11.6591C11.792 11.4664 12.0512 11.3547 12.3237 11.3471C12.5962 11.3395 12.8612 11.4364 13.0644 11.6181L21.1711 19.7248C21.3186 19.8747 21.4187 20.0648 21.4588 20.2713C21.499 20.4778 21.4774 20.6915 21.3969 20.8858C21.3163 21.0801 21.1803 21.2464 21.0059 21.3639C20.8314 21.4815 20.6262 21.545 20.4159 21.5466V21.5466Z" fill="#1F1F1F" />
			<path d="M19.4003 15.057C19.2607 15.0579 19.1223 15.0307 18.9934 14.9773C18.8644 14.9238 18.7474 14.845 18.6494 14.7455L18.0435 14.1397C17.8495 13.9382 17.7424 13.6686 17.7452 13.3889C17.748 13.1092 17.8605 12.8419 18.0586 12.6444C18.2567 12.4469 18.5244 12.3351 18.8041 12.333C19.0837 12.331 19.353 12.4389 19.5539 12.6335L20.1555 13.2266C20.3051 13.3758 20.407 13.566 20.4483 13.7732C20.4896 13.9803 20.4685 14.1951 20.3876 14.3902C20.3067 14.5854 20.1697 14.7521 19.9939 14.8693C19.8182 14.9865 19.6116 15.0488 19.4003 15.0485V15.057Z" fill="#1F1F1F" />
			<path d="M13.9306 20.5269C13.7904 20.5273 13.6515 20.5001 13.5219 20.4466C13.3923 20.3932 13.2745 20.3146 13.1754 20.2154L12.5738 19.6266C12.3719 19.4269 12.2575 19.1551 12.2559 18.871C12.2543 18.587 12.3656 18.3139 12.5653 18.1119C12.765 17.9099 13.0368 17.7956 13.3209 17.794C13.6049 17.7924 13.878 17.9037 14.08 18.1034L14.6858 18.7093C14.8339 18.8587 14.9346 19.0485 14.975 19.255C15.0155 19.4614 14.994 19.6752 14.9133 19.8695C14.8326 20.0637 14.6962 20.2298 14.5214 20.3468C14.3465 20.4637 14.141 20.5264 13.9306 20.5269Z" fill="#1F1F1F" />

		</g>
	</symbol>
	<symbol id="svg-info" viewBox="0 0 32 32">
		<g>

			<path d="M16 22.1863C15.7171 22.1863 15.4458 22.0739 15.2458 21.8738C15.0457 21.6738 14.9333 21.4025 14.9333 21.1196V15.1463C14.9333 14.8634 15.0457 14.592 15.2458 14.392C15.4458 14.192 15.7171 14.0796 16 14.0796C16.2829 14.0796 16.5542 14.192 16.7543 14.392C16.9543 14.592 17.0667 14.8634 17.0667 15.1463V21.1196C17.0667 21.4025 16.9543 21.6738 16.7543 21.8738C16.5542 22.0739 16.2829 22.1863 16 22.1863Z" fill="#1F1F1F" />
			<path d="M16 12.4455C15.8599 12.4455 15.7212 12.4179 15.5918 12.3643C15.4624 12.3107 15.3448 12.2322 15.2458 12.1331C15.1467 12.0341 15.0682 11.9165 15.0145 11.7871C14.9609 11.6576 14.9333 11.5189 14.9333 11.3789V10.8797C14.9333 10.5968 15.0457 10.3254 15.2458 10.1254C15.4458 9.92537 15.7171 9.81299 16 9.81299C16.2829 9.81299 16.5542 9.92537 16.7543 10.1254C16.9543 10.3254 17.0667 10.5968 17.0667 10.8797V11.3789C17.0667 11.5189 17.0391 11.6576 16.9855 11.7871C16.9319 11.9165 16.8533 12.0341 16.7543 12.1331C16.6552 12.2322 16.5376 12.3107 16.4082 12.3643C16.2788 12.4179 16.1401 12.4455 16 12.4455V12.4455Z" fill="#1F1F1F" />
			<path d="M16 28.5864C13.5106 28.5864 11.0771 27.8482 9.00722 26.4652C6.93736 25.0821 5.32409 23.1164 4.37144 20.8165C3.41878 18.5166 3.16953 15.9858 3.65519 13.5442C4.14084 11.1026 5.33961 8.85992 7.09989 7.09964C8.86016 5.33936 11.1029 4.1406 13.5445 3.65494C15.986 3.16928 18.5168 3.41854 20.8167 4.37119C23.1166 5.32385 25.0824 6.93711 26.4654 9.00698C27.8485 11.0768 28.5867 13.5104 28.5867 15.9998C28.5833 19.3369 27.2561 22.5364 24.8964 24.8961C22.5367 27.2559 19.3372 28.583 16 28.5864V28.5864ZM16 5.54642C13.9325 5.54642 11.9115 6.1595 10.1924 7.30813C8.4734 8.45676 7.13357 10.0893 6.34238 11.9994C5.55119 13.9095 5.34418 16.0114 5.74753 18.0391C6.15087 20.0668 7.14645 21.9295 8.60838 23.3914C10.0703 24.8533 11.9329 25.8489 13.9607 26.2522C15.9884 26.6556 18.0902 26.4486 20.0003 25.6574C21.9104 24.8662 23.543 23.5264 24.6916 21.8073C25.8403 20.0883 26.4533 18.0672 26.4533 15.9998C26.4499 13.2284 25.3475 10.5715 23.3879 8.61188C21.4282 6.65223 18.7714 5.54981 16 5.54642V5.54642Z" fill="#1F1F1F" />

		</g>
	</symbol>
	<symbol id="svg-doc" viewBox="0 0 32 32">
		<g>
			
			<path d="M25.3867 12.3736H18.5601C18.2772 12.3736 18.0059 12.2612 17.8058 12.0612C17.6058 11.8611 17.4934 11.5898 17.4934 11.3069V4.48024C17.4934 4.19734 17.6058 3.92603 17.8058 3.72599C18.0059 3.52595 18.2772 3.41357 18.5601 3.41357C18.843 3.41357 19.1143 3.52595 19.3143 3.72599C19.5144 3.92603 19.6267 4.19734 19.6267 4.48024V10.2402H25.3867C25.6696 10.2402 25.9409 10.3526 26.141 10.5527C26.341 10.7527 26.4534 11.024 26.4534 11.3069C26.4534 11.5898 26.341 11.8611 26.141 12.0612C25.9409 12.2612 25.6696 12.3736 25.3867 12.3736Z" fill="#1F1F1F" />
			<path d="M21.9733 28.5869H10.0266C8.83881 28.5858 7.69996 28.1134 6.86004 27.2735C6.02012 26.4336 5.54776 25.2947 5.54663 24.1069V7.89357C5.54776 6.70575 6.02012 5.5669 6.86004 4.72698C7.69996 3.88707 8.83881 3.4147 10.0266 3.41357L20.2666 3.41357C20.5496 3.41354 20.8211 3.52551 21.0218 3.72504L26.1418 8.84504C26.3414 9.04573 26.4533 9.31724 26.4533 9.60024V24.1069C26.4522 25.2947 25.9798 26.4336 25.1399 27.2735C24.3 28.1134 23.1611 28.5858 21.9733 28.5869V28.5869ZM10.0266 5.54691C9.4046 5.54804 8.80837 5.79563 8.36853 6.23548C7.92869 6.67532 7.68109 7.27155 7.67996 7.89357V24.1069C7.68109 24.7289 7.92869 25.3252 8.36853 25.765C8.80837 26.2048 9.4046 26.4524 10.0266 26.4536H21.9733C22.5953 26.4524 23.1916 26.2048 23.6314 25.765C24.0712 25.3252 24.3188 24.7289 24.32 24.1069V10.0269L19.8229 5.54691H10.0266Z" fill="#1F1F1F" />
			<path d="M17.2801 17.7793H10.4534C10.1705 17.7793 9.89918 17.6669 9.69914 17.4669C9.4991 17.2669 9.38672 16.9956 9.38672 16.7127C9.38672 16.4298 9.4991 16.1585 9.69914 15.9584C9.89918 15.7584 10.1705 15.646 10.4534 15.646H17.2801C17.5629 15.646 17.8343 15.7584 18.0343 15.9584C18.2343 16.1585 18.3467 16.4298 18.3467 16.7127C18.3467 16.9956 18.2343 17.2669 18.0343 17.4669C17.8343 17.6669 17.5629 17.7793 17.2801 17.7793V17.7793Z" fill="#1F1F1F" />
			<path d="M20.6934 23.1812H10.4534C10.1705 23.1812 9.89918 23.0688 9.69914 22.8688C9.4991 22.6687 9.38672 22.3974 9.38672 22.1145C9.38672 21.8316 9.4991 21.5603 9.69914 21.3603C9.89918 21.1602 10.1705 21.0479 10.4534 21.0479H20.6934C20.9763 21.0479 21.2476 21.1602 21.4476 21.3603C21.6477 21.5603 21.7601 21.8316 21.7601 22.1145C21.7601 22.3974 21.6477 22.6687 21.4476 22.8688C21.2476 23.0688 20.9763 23.1812 20.6934 23.1812Z" fill="#1F1F1F" />
			
		</g>
	</symbol>
	<symbol id="svg-delete" viewBox="0 0 32 32">
		<g>
			
				<path d="M19.4389 28.5869H12.8895C11.8183 28.5827 10.7872 28.1788 9.99805 27.4544C9.2089 26.73 8.71852 25.7371 8.62288 24.6701L7.33008 9.18213L9.46341 9.00293L10.7647 24.4909C10.8077 25.0266 11.0513 25.5264 11.4469 25.8903C11.8424 26.2541 12.3606 26.4553 12.8981 26.4536H19.4389C19.9746 26.4495 20.4897 26.2463 20.8839 25.8836C21.2782 25.5208 21.5235 25.0245 21.5722 24.4909L22.8522 9.00293L24.9855 9.18213L23.6842 24.6701C23.5889 25.7335 23.1016 26.7233 22.3169 27.4473C21.5323 28.1712 20.5064 28.5774 19.4389 28.5869V28.5869Z" fill="currentColor" />
				<path d="M26.9994 10.1592H5.33327C5.05037 10.1592 4.77906 10.0468 4.57902 9.84679C4.37898 9.64675 4.2666 9.37544 4.2666 9.09255C4.2666 8.80965 4.37898 8.53834 4.57902 8.3383C4.77906 8.13826 5.05037 8.02588 5.33327 8.02588H26.9994C27.2823 8.02588 27.5536 8.13826 27.7536 8.3383C27.9537 8.53834 28.0661 8.80965 28.0661 9.09255C28.0661 9.37544 27.9537 9.64675 27.7536 9.84679C27.5536 10.0468 27.2823 10.1592 26.9994 10.1592V10.1592Z" fill="currentColor" />
				<path d="M21.8452 10.1592H19.7118V9.09251C19.7107 8.1525 19.3368 7.25132 18.6721 6.58664C18.0074 5.92195 17.1062 5.54804 16.1662 5.54691C15.2297 5.55907 14.3349 5.93652 13.6726 6.59883C13.0103 7.26115 12.6328 8.15594 12.6206 9.09251V10.1592H10.4873V9.09251C10.4873 7.58636 11.0856 6.1419 12.1506 5.0769C13.2156 4.01189 14.6601 3.41357 16.1662 3.41357C17.6724 3.41357 19.1168 4.01189 20.1818 5.0769C21.2469 6.1419 21.8452 7.58636 21.8452 9.09251V10.1592Z" fill="currentColor" />
				<path d="M18.1588 22.7798H18.0863C17.9465 22.7706 17.8099 22.7339 17.6843 22.6719C17.5586 22.6099 17.4465 22.5237 17.3541 22.4183C17.2618 22.3129 17.1912 22.1904 17.1462 22.0577C17.1013 21.925 17.0829 21.7847 17.0922 21.6449L17.5188 15.4966C17.5375 15.2137 17.6678 14.9498 17.881 14.763C18.0943 14.5762 18.373 14.4817 18.6559 14.5004C18.9388 14.519 19.2027 14.6493 19.3895 14.8626C19.5764 15.0758 19.6709 15.3545 19.6522 15.6374L19.2255 21.7857C19.2061 22.0555 19.0854 22.3079 18.8875 22.4923C18.6896 22.6767 18.4293 22.7795 18.1588 22.7798V22.7798Z" fill="currentColor" />
				<path d="M14.1738 22.7802C13.903 22.7797 13.6427 22.6762 13.4454 22.4908C13.2481 22.3054 13.1287 22.052 13.1114 21.7818L12.6847 15.6335C12.666 15.3506 12.7605 15.0719 12.9473 14.8587C13.1342 14.6454 13.3981 14.5151 13.681 14.4965C13.9639 14.4778 14.2426 14.5723 14.4558 14.7591C14.6691 14.9459 14.7994 15.2098 14.818 15.4927L15.2447 21.641C15.254 21.7808 15.2356 21.9211 15.1907 22.0538C15.1457 22.1865 15.0751 22.309 14.9827 22.4144C14.8904 22.5198 14.7782 22.606 14.6526 22.668C14.527 22.73 14.3904 22.7667 14.2506 22.7759L14.1738 22.7802Z" fill="currentColor" />

		</g>
	</symbol>
	<symbol id="svg-favor" viewBox="0 0 28 27">
		<g>

  			<path d="M14 26.0423L13.5104 25.8111C11.1937 24.6251 9.04436 23.1373 7.11844 21.3866C2.89338 17.5514 0.626709 13.0815 0.626709 8.4666C0.626258 6.91377 1.05717 5.39133 1.87138 4.06908C2.68559 2.74683 3.8511 1.67674 5.23792 0.978159C6.62475 0.279577 8.17836 -0.020038 9.72551 0.112729C11.2727 0.245495 12.7525 0.805424 14 1.73007C15.2476 0.805424 16.7274 0.245495 18.2746 0.112729C19.8217 -0.020038 21.3753 0.279577 22.7622 0.978159C24.149 1.67674 25.3145 2.74683 26.1287 4.06908C26.9429 5.39133 27.3738 6.91377 27.3734 8.4666C27.3734 13.0815 25.1067 17.5333 20.8816 21.3957C18.9552 23.1431 16.8058 24.6279 14.4896 25.8111L14 26.0423ZM9.01338 2.3466C7.39099 2.349 5.83573 2.99456 4.68853 4.14176C3.54133 5.28896 2.89577 6.84422 2.89338 8.4666C2.89338 16.9439 11.7923 22.2933 14 23.5082C16.2032 22.2933 25.1067 16.9439 25.1067 8.4666C25.1075 7.27016 24.7573 6.09978 24.0994 5.10039C23.4416 4.10101 22.5051 3.31654 21.4059 2.84413C20.3067 2.37173 19.093 2.23213 17.9152 2.44265C16.7375 2.65316 15.6473 3.20453 14.7798 4.02847L14 4.77194L13.2203 4.02847C12.0858 2.94872 10.5796 2.34655 9.01338 2.3466V2.3466Z" fill="currentColor" />

		</g>
	</symbol>
	<symbol id="svg-share" viewBox="0 0 28 28">
		<g>
		
			<path d="M21.7067 11.9598C20.5859 11.9598 19.4904 11.6275 18.5585 11.0048C17.6266 10.3821 16.9003 9.49712 16.4714 8.46167C16.0425 7.42623 15.9303 6.28685 16.1489 5.18762C16.3676 4.0884 16.9073 3.07869 17.6998 2.2862C18.4923 1.4937 19.502 0.954 20.6012 0.735351C21.7004 0.516701 22.8398 0.62892 23.8752 1.05782C24.9107 1.48671 25.7957 2.21302 26.4184 3.1449C27.041 4.07678 27.3734 5.17237 27.3734 6.29313C27.371 7.79529 26.7732 9.23524 25.711 10.2974C24.6488 11.3596 23.2089 11.9574 21.7067 11.9598ZM21.7067 2.89313C21.0343 2.89313 20.3769 3.09254 19.8178 3.46614C19.2586 3.83973 18.8229 4.37074 18.5655 4.99201C18.3082 5.61328 18.2408 6.29691 18.372 6.95644C18.5032 7.61598 18.827 8.2218 19.3025 8.6973C19.778 9.1728 20.3839 9.49661 21.0434 9.6278C21.7029 9.75899 22.3866 9.69166 23.0078 9.43432C23.6291 9.17699 24.1601 8.7412 24.5337 8.18207C24.9073 7.62295 25.1067 6.96559 25.1067 6.29313C25.1067 5.3914 24.7485 4.52659 24.1109 3.88897C23.4732 3.25135 22.6084 2.89313 21.7067 2.89313Z" fill="#2C2C2C" />
			<path d="M5.84004 19.2133C4.80894 19.2133 3.801 18.9075 2.94367 18.3347C2.08634 17.7618 1.41814 16.9476 1.02355 15.995C0.628968 15.0424 0.525726 13.9942 0.726884 12.9829C0.928042 11.9716 1.42456 11.0427 2.15366 10.3136C2.88276 9.58448 3.81169 9.08795 4.82297 8.8868C5.83426 8.68564 6.88249 8.78888 7.8351 9.18346C8.78771 9.57805 9.60192 10.2463 10.1748 11.1036C10.7476 11.9609 11.0534 12.9689 11.0534 14C11.0522 15.3823 10.5025 16.7076 9.5251 17.685C8.54767 18.6624 7.22234 19.2121 5.84004 19.2133V19.2133ZM5.84004 11.0533C5.25725 11.0533 4.68754 11.2261 4.20296 11.5499C3.71839 11.8737 3.34071 12.3339 3.11768 12.8723C2.89465 13.4107 2.8363 14.0032 2.95 14.5748C3.0637 15.1464 3.34434 15.6715 3.75644 16.0836C4.16854 16.4957 4.69358 16.7763 5.26518 16.89C5.83678 17.0037 6.42925 16.9453 6.96768 16.7223C7.50612 16.4993 7.96632 16.1216 8.29011 15.637C8.61389 15.1525 8.78671 14.5828 8.78671 14C8.78551 13.2188 8.47468 12.47 7.92233 11.9177C7.36998 11.3653 6.62118 11.0545 5.84004 11.0533V11.0533Z" fill="#1F1F1F" />
			<path d="M22.1601 27.373C21.129 27.373 20.1211 27.0672 19.2637 26.4944C18.4064 25.9215 17.7382 25.1073 17.3436 24.1547C16.949 23.2021 16.8458 22.1538 17.047 21.1426C17.2481 20.1313 17.7446 19.2023 18.4737 18.4732C19.2028 17.7441 20.1318 17.2476 21.143 17.0465C22.1543 16.8453 23.2026 16.9485 24.1552 17.3431C25.1078 17.7377 25.922 18.4059 26.4948 19.2633C27.0677 20.1206 27.3734 21.1285 27.3734 22.1596C27.3722 23.5419 26.8226 24.8673 25.8452 25.8447C24.8677 26.8221 23.5424 27.3718 22.1601 27.373V27.373ZM22.1601 19.213C21.5773 19.213 21.0076 19.3858 20.523 19.7096C20.0385 20.0333 19.6608 20.4936 19.4377 21.032C19.2147 21.5704 19.1564 22.1629 19.2701 22.7345C19.3838 23.3061 19.6644 23.8311 20.0765 24.2432C20.4886 24.6553 21.0137 24.936 21.5852 25.0497C22.1568 25.1634 22.7493 25.105 23.2878 24.882C23.8262 24.659 24.2864 24.2813 24.6102 23.7967C24.934 23.3121 25.1068 22.7424 25.1068 22.1596C25.1056 21.3785 24.7947 20.6297 24.2424 20.0773C23.69 19.525 22.9413 19.2142 22.1601 19.213V19.213Z" fill="#1F1F1F" />
			<path d="M18.5108 21.4798C18.3359 21.4785 18.1636 21.4366 18.0076 21.3574L8.98177 16.824C8.84211 16.7617 8.71651 16.6718 8.61253 16.5596C8.50856 16.4475 8.42836 16.3154 8.37676 16.1715C8.32516 16.0275 8.30323 15.8746 8.3123 15.7219C8.32136 15.5693 8.36123 15.42 8.4295 15.2832C8.49777 15.1463 8.59303 15.0247 8.70955 14.9256C8.82606 14.8266 8.96142 14.7521 9.10747 14.7068C9.25353 14.6614 9.40725 14.6461 9.55938 14.6617C9.71151 14.6773 9.85891 14.7236 9.9927 14.7976L19.0186 19.331C19.248 19.4447 19.4321 19.6327 19.541 19.8644C19.6499 20.0961 19.6772 20.3579 19.6183 20.6071C19.5594 20.8562 19.4179 21.0781 19.2168 21.2366C19.0157 21.3951 18.7669 21.4808 18.5108 21.4798V21.4798Z" fill="#1F1F1F" />
			<path d="M9.48939 13.3196C9.23335 13.3206 8.98452 13.2349 8.78342 13.0765C8.58233 12.918 8.44081 12.6961 8.38194 12.4469C8.32306 12.1977 8.35029 11.936 8.45919 11.7043C8.56809 11.4725 8.75224 11.2845 8.98165 11.1708L17.0601 7.13163C17.1938 7.05754 17.3412 7.01129 17.4934 6.99567C17.6455 6.98005 17.7992 6.99539 17.9453 7.04075C18.0913 7.08611 18.2267 7.16056 18.3432 7.25962C18.4597 7.35868 18.555 7.4803 18.6233 7.61715C18.6915 7.75399 18.7314 7.90324 18.7405 8.05591C18.7495 8.20857 18.7276 8.36149 18.676 8.50546C18.6244 8.64942 18.5442 8.78146 18.4402 8.89361C18.3362 9.00576 18.2106 9.0957 18.071 9.15803L9.99712 13.1882C9.84048 13.2711 9.66658 13.3161 9.48939 13.3196V13.3196Z" fill="#1F1F1F" />

		</g>
	</symbol>
	<symbol id="svg-explore" viewBox="0 0 28 27">
		<g>
			<path d="M14 26.8266C10.9107 26.8227 7.91824 25.7479 5.53244 23.7853C3.14665 21.8227 1.51503 19.0937 0.915526 16.0631C0.316019 13.0325 0.785699 9.88783 2.24456 7.16469C3.70343 4.44154 6.06124 2.30837 8.91638 1.12854C11.7715 -0.0512972 14.9474 -0.204816 17.903 0.694128C20.8586 1.59307 23.4112 3.48888 25.1259 6.05862C26.8406 8.62836 27.6115 11.7131 27.3071 14.7874C27.0026 17.8616 25.6419 20.7353 23.4565 22.9189C22.2154 24.1611 20.741 25.1458 19.1182 25.8164C17.4953 26.487 15.7559 26.8303 14 26.8266V26.8266ZM14 2.3466C11.4326 2.34871 8.94536 3.24091 6.96204 4.8712C4.97871 6.50149 3.622 8.769 3.12304 11.2874C2.62408 13.8058 3.01375 16.4194 4.22565 18.6827C5.43755 20.946 7.39672 22.7192 9.76935 23.7C12.142 24.6808 14.7813 24.8087 17.2376 24.0618C19.6939 23.3149 21.8153 21.7394 23.2403 19.6038C24.6653 17.4682 25.3057 14.9046 25.0525 12.3497C24.7993 9.79486 23.6681 7.40683 21.8517 5.59247C20.821 4.56124 19.5969 3.74366 18.2495 3.18666C16.9021 2.62965 15.4579 2.34417 14 2.3466V2.3466Z" fill="#2C2C2C" />
			<path d="M8.56016 20.0267C8.37604 20.0257 8.1949 19.9801 8.03229 19.8937C7.86969 19.8074 7.73047 19.6828 7.62659 19.5308C7.52272 19.3788 7.45729 19.2038 7.43591 19.0209C7.41454 18.838 7.43787 18.6527 7.50389 18.4808L10.5503 10.6699C10.6075 10.5246 10.6943 10.3928 10.8051 10.2828C10.9159 10.1728 11.0483 10.0869 11.194 10.0307L19.0276 6.95709C19.2329 6.87662 19.4572 6.85777 19.673 6.90284C19.8888 6.94792 20.0868 7.05496 20.2427 7.21085C20.3986 7.36675 20.5056 7.56473 20.5507 7.78054C20.5957 7.99636 20.5769 8.22063 20.4964 8.42589L17.4228 16.255C17.3656 16.4002 17.2788 16.532 17.168 16.6421C17.0572 16.7521 16.9248 16.8379 16.7791 16.8942L8.97269 19.9406C8.84204 19.9957 8.70194 20.0249 8.56016 20.0267ZM12.4815 11.9574L10.5548 16.8896L15.4916 14.963L17.4364 10.008L12.4815 11.9574Z" fill="#1F1F1F" />
		</g>
	</symbol>

	
	<symbol id="svg-note" viewBox="0 0 20 20">
		<g>
			
		<path d="M5.82411 19.1199C5.68006 19.1195 5.53871 19.0809 5.41451 19.0079C5.29836 18.935 5.20291 18.8334 5.13735 18.7129C5.07178 18.5924 5.0383 18.4571 5.04011 18.3199V15.0783C5.04011 14.8661 5.12439 14.6627 5.27442 14.5126C5.42445 14.3626 5.62794 14.2783 5.84011 14.2783C6.05228 14.2783 6.25577 14.3626 6.40579 14.5126C6.55582 14.6627 6.64011 14.8661 6.64011 15.0783V16.9759L11.3633 14.4159C11.55 14.3149 11.7692 14.2922 11.9726 14.3529C12.1761 14.4135 12.3471 14.5524 12.4481 14.7391C12.5491 14.9258 12.5718 15.145 12.5112 15.3485C12.4506 15.5519 12.3116 15.7229 12.1249 15.8239L6.22091 19.0239C6.09917 19.0897 5.96245 19.1228 5.82411 19.1199Z" fill="currentColor" />
		<path d="M13.5201 15.9199H11.7281C11.5159 15.9199 11.3124 15.8356 11.1624 15.6856C11.0123 15.5355 10.9281 15.3321 10.9281 15.1199C10.9281 14.9077 11.0123 14.7042 11.1624 14.5542C11.3124 14.4042 11.5159 14.3199 11.7281 14.3199H13.5201C14.6653 14.3182 15.7631 13.8625 16.5729 13.0527C17.3827 12.2429 17.8384 11.1451 17.8401 9.99988V6.79988C17.8384 5.65467 17.3827 4.55684 16.5729 3.74705C15.7631 2.93726 14.6653 2.48158 13.5201 2.47988H6.48006C5.33485 2.48158 4.23702 2.93726 3.42723 3.74705C2.61744 4.55684 2.16175 5.65467 2.16006 6.79988V9.99988C2.16132 11.0494 2.54406 12.0627 3.23698 12.851C3.9299 13.6393 4.88575 14.1488 5.92646 14.2847C6.13863 14.3118 6.33133 14.4222 6.46215 14.5914C6.59298 14.7606 6.65122 14.9749 6.62406 15.1871C6.5969 15.3993 6.48657 15.592 6.31734 15.7228C6.14811 15.8536 5.93383 15.9118 5.72166 15.8847C4.2933 15.6981 2.9817 14.998 2.03184 13.915C1.08198 12.8321 0.558811 11.4404 0.560061 9.99988V6.79988C0.561755 5.23032 1.18601 3.72553 2.29586 2.61568C3.40571 1.50583 4.9105 0.881577 6.48006 0.879883L13.5201 0.879883C15.0896 0.881577 16.5944 1.50583 17.7043 2.61568C18.8141 3.72553 19.4384 5.23032 19.4401 6.79988V9.99988C19.4384 11.5694 18.8141 13.0742 17.7043 14.1841C16.5944 15.2939 15.0896 15.9182 13.5201 15.9199V15.9199Z" fill="currentColor" />
		<path d="M10.0002 9.7471C9.78802 9.7471 9.58454 9.66282 9.43451 9.51279C9.28448 9.36276 9.2002 9.15928 9.2002 8.9471V5.1999C9.2002 4.98773 9.28448 4.78425 9.43451 4.63422C9.58454 4.48419 9.78802 4.3999 10.0002 4.3999C10.2124 4.3999 10.4159 4.48419 10.5659 4.63422C10.7159 4.78425 10.8002 4.98773 10.8002 5.1999V8.9471C10.8002 9.15928 10.7159 9.36276 10.5659 9.51279C10.4159 9.66282 10.2124 9.7471 10.0002 9.7471V9.7471Z" fill="currentColor" />
		<path d="M10.0002 12.4C9.78802 12.4 9.58454 12.3157 9.43451 12.1657C9.28448 12.0156 9.2002 11.8122 9.2002 11.6V11.28C9.2002 11.0678 9.28448 10.8643 9.43451 10.7143C9.58454 10.5643 9.78802 10.48 10.0002 10.48C10.2124 10.48 10.4159 10.5643 10.5659 10.7143C10.7159 10.8643 10.8002 11.0678 10.8002 11.28V11.6C10.8002 11.8122 10.7159 12.0156 10.5659 12.1657C10.4159 12.3157 10.2124 12.4 10.0002 12.4Z" fill="currentColor" />
		
		</g>
	</symbol>
	<symbol id="svg-wallet" viewBox="0 0 24 24">
		<g>
			<path d="M17.4401 8.64006H5.28006C4.55893 8.63921 3.86758 8.35237 3.35766 7.84245C2.84775 7.33254 2.56091 6.64119 2.56006 5.92006C2.56091 5.02919 2.91518 4.17505 3.54512 3.54512C4.17505 2.91518 5.02919 2.56091 5.92006 2.56006L14.8801 2.56006C15.7709 2.56091 16.6251 2.91518 17.255 3.54512C17.8849 4.17505 18.2392 5.02919 18.2401 5.92006V7.84006C18.2401 8.05223 18.1558 8.25572 18.0057 8.40574C17.8557 8.55577 17.6522 8.64006 17.4401 8.64006ZM5.92006 4.16006C5.45354 4.1609 5.00637 4.3466 4.67648 4.67649C4.3466 5.00637 4.1609 5.45354 4.16006 5.92006C4.16006 6.2171 4.27806 6.50198 4.4881 6.71202C4.69814 6.92206 4.98302 7.04006 5.28006 7.04006H16.6401V5.92006C16.6392 5.45354 16.4535 5.00637 16.1236 4.67649C15.7938 4.3466 15.3466 4.1609 14.8801 4.16006H5.92006Z" fill="currentColor" />
			<path d="M18.0801 21.4401H5.92006C5.02919 21.4393 4.17505 21.085 3.54512 20.4551C2.91518 19.8251 2.56091 18.971 2.56006 18.0801L2.56006 5.92012C2.56006 5.70794 2.64434 5.50446 2.79437 5.35443C2.9444 5.2044 3.14789 5.12012 3.36006 5.12012C3.57223 5.12012 3.77571 5.2044 3.92574 5.35443C4.07577 5.50446 4.16006 5.70794 4.16006 5.92012V18.0801C4.1609 18.5466 4.3466 18.9938 4.67649 19.3237C5.00637 19.6536 5.45354 19.8393 5.92006 19.8401H18.0801C18.5466 19.8393 18.9938 19.6536 19.3236 19.3237C19.6535 18.9938 19.8392 18.5466 19.8401 18.0801V10.4001C19.8392 9.9336 19.6535 9.48642 19.3236 9.15654C18.9938 8.82666 18.5466 8.64096 18.0801 8.64012H15.0657C14.8535 8.64012 14.65 8.55583 14.5 8.4058C14.3499 8.25577 14.2657 8.05229 14.2657 7.84012C14.2657 7.62794 14.3499 7.42446 14.5 7.27443C14.65 7.1244 14.8535 7.04012 15.0657 7.04012H18.0801C18.9709 7.04096 19.8251 7.39524 20.455 8.02517C21.0849 8.65511 21.4392 9.50925 21.4401 10.4001V18.0801C21.4392 18.971 21.0849 19.8251 20.455 20.4551C19.8251 21.085 18.9709 21.4393 18.0801 21.4401Z" fill="currentColor" />
			<path d="M20.6402 17.5999H15.5202C14.629 17.5999 13.7744 17.2459 13.1443 16.6158C12.5142 15.9856 12.1602 15.131 12.1602 14.2399C12.1602 13.3488 12.5142 12.4941 13.1443 11.864C13.7744 11.2339 14.629 10.8799 15.5202 10.8799H20.6402C20.8523 10.8799 21.0558 10.9642 21.2058 11.1142C21.3559 11.2642 21.4402 11.4677 21.4402 11.6799V16.7999C21.4402 17.0121 21.3559 17.2155 21.2058 17.3656C21.0558 17.5156 20.8523 17.5999 20.6402 17.5999ZM15.5202 12.4799C15.0534 12.4799 14.6057 12.6653 14.2756 12.9954C13.9456 13.3254 13.7602 13.7731 13.7602 14.2399C13.7602 14.7067 13.9456 15.1543 14.2756 15.4844C14.6057 15.8145 15.0534 15.9999 15.5202 15.9999H19.8402V12.4799H15.5202Z" fill="currentColor" />
			<path d="M16.7998 15.2003C17.33 15.2003 17.7598 14.7705 17.7598 14.2403C17.7598 13.7101 17.33 13.2803 16.7998 13.2803C16.2697 13.2803 15.8398 13.7101 15.8398 14.2403C15.8398 14.7705 16.2697 15.2003 16.7998 15.2003Z" fill="currentColor" />
		</g>
	</symbol>
	<symbol id="svg-plus" viewBox="0 0 20 20">
		<g>
			<path d="M18.1401 10.8002H0.860059C0.647885 10.8002 0.444402 10.7159 0.294373 10.5659C0.144344 10.4159 0.0600586 10.2124 0.0600586 10.0002C0.0600586 9.78802 0.144344 9.58454 0.294373 9.43451C0.444402 9.28448 0.647885 9.2002 0.860059 9.2002H18.1401C18.3522 9.2002 18.5557 9.28448 18.7057 9.43451C18.8558 9.58454 18.9401 9.78802 18.9401 10.0002C18.9401 10.2124 18.8558 10.4159 18.7057 10.5659C18.5557 10.7159 18.3522 10.8002 18.1401 10.8002Z" fill="currentColor" />
  			<path d="M9.5002 19.4401C9.28802 19.4401 9.08454 19.3558 8.93451 19.2057C8.78448 19.0557 8.7002 18.8522 8.7002 18.6401V1.36006C8.7002 1.14789 8.78448 0.944402 8.93451 0.794373C9.08454 0.644344 9.28802 0.560059 9.5002 0.560059C9.71237 0.560059 9.91585 0.644344 10.0659 0.794373C10.2159 0.944402 10.3002 1.14789 10.3002 1.36006V18.6401C10.3002 18.8522 10.2159 19.0557 10.0659 19.2057C9.91585 19.3558 9.71237 19.4401 9.5002 19.4401Z" fill="currentColor" />
		</g>
	</symbol>
	<symbol id="svg-alarm" viewBox="0 0 29 29">
		<g>
			<path d="M14.5291 25.0133C12.6225 25.0133 10.7586 24.4479 9.17333 23.3885C7.58805 22.3291 6.35253 20.8234 5.62306 19.0618C4.89358 17.3002 4.7029 15.3619 5.07515 13.4919C5.44739 11.6219 6.36583 9.90435 7.71431 8.55639C9.06279 7.20844 10.7807 6.29066 12.6508 5.91914C14.521 5.54762 16.4593 5.73905 18.2206 6.46921C19.9819 7.19937 21.4871 8.43547 22.5459 10.0212C23.6046 11.6069 24.1693 13.4709 24.1686 15.3776C24.1656 17.9329 23.149 20.3826 21.3418 22.1891C19.5345 23.9956 17.0844 25.0113 14.5291 25.0133ZM14.5291 7.60478C12.9918 7.60478 11.489 8.06065 10.2108 8.91473C8.93255 9.76882 7.93629 10.9828 7.34799 12.4031C6.75968 13.8234 6.60576 15.3862 6.90567 16.894C7.20559 18.4018 7.94587 19.7867 9.03292 20.8738C10.12 21.9608 11.5049 22.7011 13.0127 23.001C14.5205 23.3009 16.0833 23.147 17.5036 22.5587C18.9239 21.9704 20.1379 20.9741 20.992 19.6959C21.8461 18.4177 22.3019 16.9149 22.3019 15.3776C22.2999 13.3167 21.4804 11.3408 20.0231 9.88356C18.5659 8.42631 16.59 7.60676 14.5291 7.60478Z" fill="currentColor"/>
			<path d="M17.0421 19.4506C16.8846 19.4492 16.7302 19.4067 16.5941 19.3274L14.0778 17.8752C13.9355 17.7939 13.8171 17.6766 13.7346 17.535C13.652 17.3935 13.6081 17.2327 13.6074 17.0688V12.2341C13.6074 11.9866 13.7058 11.7492 13.8808 11.5741C14.0558 11.3991 14.2932 11.3008 14.5408 11.3008C14.7883 11.3008 15.0257 11.3991 15.2007 11.5741C15.3758 11.7492 15.4741 11.9866 15.4741 12.2341V16.5312L17.5237 17.7109C17.7018 17.8147 17.8406 17.9745 17.9183 18.1655C17.9961 18.3564 18.0084 18.5677 17.9534 18.7664C17.8984 18.9651 17.7792 19.14 17.6143 19.2638C17.4494 19.3875 17.2482 19.4533 17.0421 19.4506Z" fill="currentColor"/>
			<path d="M24.2288 9.20648C24.0761 9.20706 23.9256 9.16987 23.7908 9.09822C23.6559 9.02657 23.5409 8.92268 23.456 8.79582C22.1716 6.89047 20.2601 5.49549 18.0538 4.85342C17.9359 4.81983 17.8258 4.76336 17.7297 4.68721C17.6336 4.61106 17.5535 4.51673 17.4938 4.40961C17.3734 4.19327 17.3439 3.93795 17.4117 3.69982C17.4795 3.46169 17.6392 3.26026 17.8555 3.13983C18.0718 3.01941 18.3272 2.98986 18.5653 3.05768C21.194 3.82017 23.4717 5.48093 25.0016 7.75048C25.0964 7.89083 25.1513 8.05435 25.1603 8.22351C25.1693 8.39267 25.1321 8.56109 25.0527 8.71072C24.9733 8.86035 24.8546 8.98554 24.7095 9.07288C24.5643 9.16022 24.3982 9.2064 24.2288 9.20648Z" fill="currentColor"/>
			<path d="M4.83385 9.17278C4.66385 9.17316 4.49698 9.1271 4.35124 9.03957C4.20551 8.95205 4.08644 8.82638 4.0069 8.67614C3.92736 8.5259 3.89037 8.35679 3.89991 8.18706C3.90945 8.01732 3.96517 7.85342 4.06105 7.71304C5.60246 5.46105 7.87074 3.80696 10.4861 3.02771C10.6044 2.98969 10.729 2.97565 10.8528 2.98643C10.9765 2.9972 11.0969 3.03257 11.2068 3.09046C11.3167 3.14834 11.4139 3.22759 11.4928 3.32354C11.5717 3.41949 11.6306 3.53023 11.6661 3.64925C11.7017 3.76828 11.7131 3.89319 11.6997 4.01669C11.6864 4.14018 11.6485 4.25976 11.5883 4.36843C11.5281 4.47709 11.4468 4.57265 11.3493 4.6495C11.2517 4.72635 11.1397 4.78295 11.02 4.81598C8.81612 5.47109 6.90472 6.86444 5.60665 8.76211C5.52121 8.88851 5.40609 8.99204 5.27136 9.06363C5.13664 9.13523 4.98642 9.1727 4.83385 9.17278Z" fill="currentColor"/>
		</g>
	</symbol>
	<symbol id="svg-assig" viewBox="0 0 29 29">
		<g>
			<path d="M18.9796 25.0134H10.0196C8.98026 25.0124 7.98377 24.5991 7.24884 23.8642C6.51391 23.1293 6.1006 22.1328 6.09961 21.0934V9.5201C6.1006 8.48075 6.51391 7.48426 7.24884 6.74933C7.98377 6.0144 8.98026 5.60109 10.0196 5.6001H18.9796C20.019 5.60109 21.0154 6.0144 21.7504 6.74933C22.4853 7.48426 22.8986 8.48075 22.8996 9.5201V21.0934C22.8986 22.1328 22.4853 23.1293 21.7504 23.8642C21.0154 24.5991 20.019 25.0124 18.9796 25.0134ZM10.0196 7.46676C9.47533 7.46775 8.95363 7.6844 8.56877 8.06926C8.18391 8.45412 7.96726 8.97582 7.96628 9.5201V21.0934C7.96726 21.6377 8.18391 22.1594 8.56877 22.5443C8.95363 22.9291 9.47533 23.1458 10.0196 23.1468H18.9796C19.5239 23.1458 20.0456 22.9291 20.4304 22.5443C20.8153 22.1594 21.032 21.6377 21.0329 21.0934V9.5201C21.032 8.97582 20.8153 8.45412 20.4304 8.06926C20.0456 7.6844 19.5239 7.46775 18.9796 7.46676H10.0196Z" fill="currentColor"/>
			<path d="M17.4867 20.5337H11.5134C11.2659 20.5337 11.0285 20.4353 10.8534 20.2603C10.6784 20.0853 10.5801 19.8479 10.5801 19.6003C10.5801 19.3528 10.6784 19.1154 10.8534 18.9404C11.0285 18.7653 11.2659 18.667 11.5134 18.667H17.4867C17.7343 18.667 17.9717 18.7653 18.1467 18.9404C18.3217 19.1154 18.4201 19.3528 18.4201 19.6003C18.4201 19.8479 18.3217 20.0853 18.1467 20.2603C17.9717 20.4353 17.7343 20.5337 17.4867 20.5337Z" fill="currentColor"/>
			<path d="M17.8594 16.2402H11.1394C10.8919 16.2402 10.6545 16.1419 10.4794 15.9668C10.3044 15.7918 10.2061 15.5544 10.2061 15.3069C10.2061 15.0593 10.3044 14.8219 10.4794 14.6469C10.6545 14.4719 10.8919 14.3735 11.1394 14.3735H17.8594C18.1069 14.3735 18.3443 14.4719 18.5194 14.6469C18.6944 14.8219 18.7927 15.0593 18.7927 15.3069C18.7927 15.5544 18.6944 15.7918 18.5194 15.9668C18.3443 16.1419 18.1069 16.2402 17.8594 16.2402Z" fill="currentColor"/>
			<path d="M17.8594 11.9467H11.1394C10.8919 11.9467 10.6545 11.8484 10.4794 11.6734C10.3044 11.4983 10.2061 11.2609 10.2061 11.0134C10.2061 10.7659 10.3044 10.5285 10.4794 10.3534C10.6545 10.1784 10.8919 10.0801 11.1394 10.0801H17.8594C18.1069 10.0801 18.3443 10.1784 18.5194 10.3534C18.6944 10.5285 18.7927 10.7659 18.7927 11.0134C18.7927 11.2609 18.6944 11.4983 18.5194 11.6734C18.3443 11.8484 18.1069 11.9467 17.8594 11.9467Z" fill="currentColor"/>
			<path d="M17.1134 6.53326C17.1134 5.84016 16.8381 5.17544 16.348 4.68535C15.8579 4.19525 15.1932 3.91992 14.5001 3.91992C13.807 3.91992 13.1422 4.19525 12.6521 4.68535C12.1621 5.17544 11.8867 5.84016 11.8867 6.53326H17.1134Z" fill="currentColor"/>
			<path d="M17.1131 7.46682H11.8865C11.6389 7.46682 11.4015 7.36848 11.2265 7.19345C11.0515 7.01842 10.9531 6.78102 10.9531 6.53348C10.9531 5.59285 11.3268 4.69074 11.9919 4.02561C12.657 3.36048 13.5592 2.98682 14.4998 2.98682C15.4404 2.98682 16.3425 3.36048 17.0077 4.02561C17.6728 4.69074 18.0465 5.59285 18.0465 6.53348C18.0465 6.65605 18.0223 6.77742 17.9754 6.89065C17.9285 7.00389 17.8598 7.10678 17.7731 7.19345C17.6864 7.28012 17.5835 7.34887 17.4703 7.39577C17.3571 7.44268 17.2357 7.46682 17.1131 7.46682ZM13.1035 5.60015H15.8961C15.7425 5.37068 15.5348 5.1826 15.2913 5.05253C15.0477 4.92245 14.7759 4.85441 14.4998 4.85441C14.2237 4.85441 13.9519 4.92245 13.7083 5.05253C13.4648 5.1826 13.2571 5.37068 13.1035 5.60015Z" fill="currentColor"/>
			<path d="M14.4997 6.53366C15.0152 6.53366 15.4331 6.11579 15.4331 5.60033C15.4331 5.08486 15.0152 4.66699 14.4997 4.66699C13.9843 4.66699 13.5664 5.08486 13.5664 5.60033C13.5664 6.11579 13.9843 6.53366 14.4997 6.53366Z" fill="white"/>
		</g>
	</symbol>
	<symbol id="svg-trolley" viewBox="0 0 29 29">
		<g>
			<path d="M15.0491 24.6141C14.4596 24.6142 13.8815 24.4525 13.3776 24.1467C12.8737 23.8409 12.4633 23.4027 12.1911 22.8799C11.919 22.357 11.7955 21.7695 11.8341 21.1813C11.8727 20.5932 12.0719 20.0269 12.41 19.544C12.7481 19.0612 13.2122 18.6804 13.7518 18.4431C14.2913 18.2058 14.8856 18.121 15.47 18.198C16.0544 18.2751 16.6065 18.5109 17.0661 18.8799C17.5257 19.249 17.8753 19.737 18.0768 20.2909C18.2538 20.7776 18.3109 21.2998 18.2433 21.8133C18.1756 22.3267 17.9851 22.8163 17.688 23.2405C17.391 23.6647 16.996 24.011 16.5366 24.2502C16.0772 24.4893 15.567 24.6141 15.0491 24.6141ZM15.0491 20.0371C14.7609 20.0369 14.4801 20.1287 14.2476 20.299C14.0151 20.4693 13.843 20.7093 13.7562 20.9842C13.6694 21.259 13.6725 21.5544 13.765 21.8273C13.8575 22.1003 14.0346 22.3366 14.2706 22.502C14.5067 22.6675 14.7893 22.7533 15.0774 22.7472C15.3656 22.741 15.6442 22.6432 15.873 22.4678C16.1017 22.2925 16.2686 22.0487 16.3493 21.7721C16.4301 21.4954 16.4206 21.2002 16.3221 20.9293C16.2621 20.7615 16.1695 20.6072 16.0497 20.4753C15.9299 20.3433 15.7852 20.2363 15.624 20.1603C15.4432 20.079 15.2473 20.037 15.0491 20.0371Z" fill="currentColor"/>
			<path d="M17.2 21.5453C16.9809 21.5441 16.7692 21.466 16.602 21.3245C16.4347 21.1829 16.3226 20.9871 16.2852 20.7712C16.2478 20.5553 16.2875 20.3332 16.3975 20.1437C16.5074 19.9541 16.6805 19.8093 16.8864 19.7346L24.5995 16.9271C24.7144 16.8849 24.8366 16.8658 24.9589 16.8709C25.0813 16.8761 25.2014 16.9053 25.3124 16.957C25.4234 17.0087 25.5231 17.0818 25.6058 17.1721C25.6885 17.2625 25.7525 17.3682 25.7942 17.4834C25.8738 17.7147 25.8598 17.968 25.7551 18.1892C25.6505 18.4103 25.4635 18.5817 25.2342 18.6669L17.5211 21.4855C17.4186 21.5248 17.3098 21.545 17.2 21.5453Z" fill="currentColor"/>
			<path d="M14.2729 20.1601C14.0815 20.1603 13.8947 20.1016 13.7378 19.9921C13.5809 19.8826 13.4614 19.7275 13.3956 19.5478L8.93797 7.32487C8.75104 6.81803 8.3719 6.40527 7.88272 6.17605C7.39354 5.94684 6.83374 5.91963 6.32464 6.10034L5.09264 6.54834C4.97743 6.59026 4.85509 6.60907 4.7326 6.60371C4.61012 6.59835 4.48989 6.56891 4.37878 6.51708C4.26767 6.46525 4.16786 6.39205 4.08504 6.30165C4.00223 6.21125 3.93802 6.10542 3.89611 5.99021C3.85419 5.87499 3.83537 5.75265 3.84074 5.63017C3.8461 5.50768 3.87554 5.38745 3.92736 5.27635C3.97919 5.16524 4.0524 5.06542 4.1428 4.98261C4.2332 4.89979 4.33903 4.83559 4.45424 4.79367L5.68624 4.34567C6.66071 3.99553 7.73413 4.04516 8.67212 4.48373C9.61012 4.9223 10.3365 5.71418 10.6926 6.68647L15.1465 18.9243C15.2306 19.157 15.2188 19.4136 15.1138 19.6376C15.0088 19.8616 14.8191 20.0348 14.5865 20.119C14.4854 20.1519 14.3791 20.1658 14.2729 20.1601Z" fill="currentColor"/>
			<path d="M17.7862 17.9871C17.2818 17.9871 16.7895 17.832 16.3762 17.5428C15.9628 17.2537 15.6483 16.8444 15.4753 16.3706L13.8998 12.0735C13.7903 11.7686 13.742 11.4451 13.7578 11.1215C13.7736 10.7979 13.8532 10.4806 13.9919 10.1878C14.1307 9.89504 14.3259 9.63256 14.5664 9.41544C14.8068 9.19831 15.0878 9.03082 15.3932 8.92258L19.4998 7.41805C20.1128 7.19565 20.7889 7.22565 21.3797 7.50146C21.9705 7.77726 22.4277 8.27632 22.6508 8.88898L24.215 13.1823C24.4374 13.7952 24.4074 14.4714 24.1316 15.0622C23.8558 15.653 23.3568 16.1102 22.7441 16.3332L18.615 17.8266C18.3502 17.9277 18.0697 17.9821 17.7862 17.9871ZM20.1494 9.17271L16.0204 10.666C15.8764 10.7208 15.7591 10.829 15.693 10.9681C15.6269 11.1073 15.6172 11.2665 15.6657 11.4127L17.23 15.706C17.2831 15.8512 17.3912 15.9697 17.5308 16.036C17.6704 16.1024 17.8305 16.1112 17.9766 16.0607L22.1057 14.5674C22.1793 14.5429 22.2473 14.5042 22.3059 14.4534C22.3645 14.4026 22.4125 14.3408 22.4472 14.2714C22.4819 14.2021 22.5025 14.1266 22.508 14.0493C22.5135 13.9719 22.5036 13.8942 22.479 13.8207L20.9148 9.52738C20.8616 9.38221 20.7536 9.26371 20.614 9.19738C20.4743 9.13105 20.3142 9.12219 20.1681 9.17271H20.1494Z" fill="currentColor"/>
		</g>
	</symbol>
	<symbol id="svg-flag" viewBox="0 0 29 29">
		<g>
			<path d="M5.53978 25.0135C5.29224 25.0135 5.05485 24.9152 4.87981 24.7401C4.70478 24.5651 4.60645 24.3277 4.60645 24.0802V3.92015C4.60645 3.67261 4.70478 3.43522 4.87981 3.26018C5.05485 3.08515 5.29224 2.98682 5.53978 2.98682C5.78731 2.98682 6.02471 3.08515 6.19974 3.26018C6.37478 3.43522 6.47311 3.67261 6.47311 3.92015V24.0802C6.47311 24.3277 6.37478 24.5651 6.19974 24.7401C6.02471 24.9152 5.78731 25.0135 5.53978 25.0135Z" fill="currentColor"/>
			<path d="M23.4598 18.2935H5.53978C5.29224 18.2935 5.05485 18.1952 4.87981 18.0201C4.70478 17.8451 4.60645 17.6077 4.60645 17.3601C4.60645 17.1126 4.70478 16.8752 4.87981 16.7002C5.05485 16.5251 5.29224 16.4268 5.53978 16.4268H21.7798L18.5579 11.1255C18.4681 10.9795 18.4205 10.8115 18.4205 10.6401C18.4205 10.4688 18.4681 10.3008 18.5579 10.1548L21.7798 4.85348H5.53978C5.29224 4.85348 5.05485 4.75515 4.87981 4.58012C4.70478 4.40508 4.60645 4.16769 4.60645 3.92015C4.60645 3.67261 4.70478 3.43522 4.87981 3.26018C5.05485 3.08515 5.29224 2.98682 5.53978 2.98682H23.4598C23.6253 2.98717 23.7877 3.03153 23.9304 3.11535C24.0731 3.19917 24.191 3.31942 24.2719 3.46379C24.3528 3.60816 24.3939 3.77145 24.3909 3.93693C24.388 4.10241 24.341 4.26412 24.255 4.40548L20.447 10.6401L24.255 16.8748C24.341 17.0162 24.388 17.1779 24.3909 17.3434C24.3939 17.5088 24.3528 17.6721 24.2719 17.8165C24.191 17.9609 24.0731 18.0811 23.9304 18.1649C23.7877 18.2488 23.6253 18.2931 23.4598 18.2935Z" fill="currentColor"/>
		</g>
	</symbol>
	<symbol id="svg-check" viewBox="0 0 21 20">
		<g>
  			
  				<path d="M8.50032 15.3335C8.32393 15.3324 8.15517 15.2614 8.03099 15.1362L2.82832 9.93616C2.70314 9.81098 2.63281 9.64119 2.63281 9.46416C2.63281 9.28712 2.70314 9.11734 2.82832 8.99216C2.9535 8.86698 3.12329 8.79665 3.30032 8.79665C3.47736 8.79665 3.64714 8.86698 3.77232 8.99216L8.50032 13.7228L17.2283 4.99483C17.3535 4.86964 17.5233 4.79932 17.7003 4.79932C17.8774 4.79932 18.0471 4.86964 18.1723 4.99483C18.2975 5.12001 18.3678 5.28979 18.3678 5.46683C18.3678 5.64386 18.2975 5.81364 18.1723 5.93883L8.97232 15.1362C8.91052 15.1985 8.837 15.248 8.756 15.2819C8.675 15.3158 8.58811 15.3333 8.50032 15.3335Z" fill="currentColor" />

		</g>
	</symbol>
	<symbol id="svg-phone" viewBox="0 0 28 28">
		<g>
		
 			 <path d="M20.9544 27.3731C20.1948 27.3739 19.4449 27.2034 18.7602 26.8745C14.9332 25.0348 11.4459 22.5592 8.44691 19.5531C5.44081 16.5541 2.96525 13.0669 1.12557 9.2398C0.670386 8.28284 0.523178 7.20827 0.704234 6.16415C0.88529 5.12003 1.3857 4.15776 2.13651 3.40993L4.58451 0.957398C4.79774 0.745401 5.08622 0.626424 5.38691 0.626465V0.626465C5.68759 0.626424 5.97607 0.745401 6.18931 0.957398L12.0192 6.7918C12.1246 6.89669 12.2082 7.02137 12.2653 7.15868C12.3224 7.29599 12.3517 7.44323 12.3517 7.59193C12.3517 7.74063 12.3224 7.88787 12.2653 8.02518C12.2082 8.16249 12.1246 8.28717 12.0192 8.39206L9.91571 10.4955C10.8362 12.0542 11.9496 13.4905 13.2296 14.7705C14.5086 16.0515 15.9451 17.165 17.5045 18.0843L19.608 15.9809C19.7129 15.8755 19.8375 15.7918 19.9749 15.7347C20.1122 15.6777 20.2594 15.6483 20.4081 15.6483C20.5568 15.6483 20.704 15.6777 20.8414 15.7347C20.9787 15.7918 21.1033 15.8755 21.2082 15.9809L27.0426 21.8107C27.2536 22.0245 27.3719 22.3128 27.3719 22.6131C27.3719 22.9135 27.2536 23.2017 27.0426 23.4155L24.5901 25.8635C24.113 26.3417 23.5463 26.7211 22.9225 26.9801C22.2986 27.2392 21.6299 27.3727 20.9544 27.3731V27.3731ZM5.38691 3.34646L3.73677 5.0102C3.31823 5.42715 3.03905 5.96346 2.93759 6.54547C2.83612 7.12747 2.91735 7.72662 3.17011 8.2606C4.8987 11.8552 7.22398 15.1308 10.0472 17.9483C12.8658 20.7734 16.143 23.1003 19.7394 24.8299C20.2737 25.0828 20.8733 25.1636 21.4555 25.0613C22.0377 24.959 22.5738 24.6786 22.9898 24.2587L24.6536 22.6131L20.424 18.3835L18.5154 20.2921C18.3419 20.4697 18.1148 20.5855 17.8691 20.6215C17.6234 20.6575 17.3727 20.6119 17.1554 20.4915C15.1205 19.3955 13.2571 18.0071 11.6248 16.3707C9.98705 14.7395 8.59855 12.876 7.50397 10.8401C7.38362 10.6228 7.33796 10.3721 7.37399 10.1264C7.41003 9.88066 7.52578 9.65359 7.70344 9.48006L9.61197 7.567L5.38691 3.34646Z" fill="currentColor" />

		</g>
	</symbol>
	<symbol id="svg-pin" viewBox="0 0 22 28">
		<g>
			<path d="M10.9998 27.3731C10.7546 27.3731 10.516 27.2936 10.3198 27.1465C9.92994 26.8518 0.799805 19.8931 0.799805 10.8265C0.799805 8.12126 1.87444 5.52685 3.78732 3.61398C5.70019 1.7011 8.2946 0.626465 10.9998 0.626465C13.705 0.626465 16.2994 1.7011 18.2123 3.61398C20.1252 5.52685 21.1998 8.12126 21.1998 10.8265C21.1998 19.8931 12.0697 26.8518 11.6798 27.1465C11.4836 27.2936 11.245 27.3731 10.9998 27.3731ZM10.9998 2.89313C8.89649 2.89553 6.88001 3.73213 5.39274 5.2194C3.90547 6.70667 3.06887 8.72315 3.06647 10.8265C3.06647 17.3998 8.9598 23.0302 10.9998 24.7755C13.0398 23.0302 18.9331 17.3998 18.9331 10.8265C18.9307 8.72315 18.0941 6.70667 16.6069 5.2194C15.1196 3.73213 13.1031 2.89553 10.9998 2.89313V2.89313Z" fill="currentColor" />
			<path d="M11 15.1334C10.1482 15.1334 9.3156 14.8808 8.60737 14.4076C7.89914 13.9343 7.34715 13.2617 7.02119 12.4748C6.69523 11.6878 6.60994 10.8219 6.77611 9.9865C6.94229 9.15109 7.35246 8.38371 7.95475 7.78142C8.55705 7.17912 9.32443 6.76895 10.1598 6.60277C10.9953 6.4366 11.8612 6.52189 12.6481 6.84785C13.4351 7.17381 14.1077 7.7258 14.5809 8.43403C15.0541 9.14226 15.3067 9.97491 15.3067 10.8267C15.3055 11.9685 14.8514 13.0632 14.044 13.8706C13.2366 14.678 12.1419 15.1322 11 15.1334ZM11 8.78669C10.5966 8.78669 10.2021 8.90633 9.86666 9.13049C9.53119 9.35465 9.26972 9.67325 9.11531 10.046C8.96091 10.4188 8.92051 10.829 8.99923 11.2247C9.07794 11.6204 9.27223 11.9839 9.55753 12.2692C9.84283 12.5545 10.2063 12.7488 10.602 12.8275C10.9978 12.9062 11.4079 12.8658 11.7807 12.7114C12.1535 12.557 12.4721 12.2955 12.6962 11.9601C12.9204 11.6246 13.04 11.2302 13.04 10.8267C13.0388 10.286 12.8235 9.76783 12.4412 9.38551C12.0589 9.0032 11.5407 8.78789 11 8.78669V8.78669Z" fill="currentColor" />

		</g>
	</symbol>
</svg>
